<svg width="766" height="155" viewBox="0 0 766 155" fill="none" xmlns="http://www.w3.org/2000/svg">
<g clip-path="url(#clip0_392_875)">
<path d="M262.2 81.1L289.4 130.7H205.5L178.2 81.1H262.2Z" fill="black"/>
<path d="M94 24.2999C94.9 25.9999 113.4 59.5999 114.3 61.1999C117.2 66.5999 120.2 71.1999 125.1 75.1999C131.4 80.2999 141.5 81.2999 151.1 81.2999H157.6C160.6 81.2999 158.8 81.2999 167.8 81.1999L181.4 105.9L195 130.6H125.8C117 130.6 108.3 130.5 99.6 128.4C91.1 126.5 83.2 122.8 76.3 117.6C61.8 106.9 53.6 92.6999 45.2 77.3999L30.6 50.8999L16 24.3999H94V24.2999Z" fill="black"/>
<path d="M230.9 23.8999L257.9 73.3999H173.9L146.9 23.8999H230.9Z" fill="black"/>
<path d="M394.8 107.9V123.6H333.8V25.8H350.2V107.9H394.8ZM416 41.1C413.3 41.1 410.7 40.1 408.8 38.1C406.9 36.2 405.8 33.7 405.8 31C405.8 28.3 406.8 25.8 408.8 24C410.7 22.1 413.3 21 416 21C418.7 21 421.2 22.1 423.1 24C425 25.8 426 28.4 426 31C426 36.5 421.6 41 416 41.1ZM408 123.6V51.2H423.7V123.6H408ZM554.3 123.6H536.9L528.8 99.1H491.8L483.8 123.6H466.4L501.5 25.8H519.1L554.3 123.6ZM509.7 43.3L496.5 84.2H523.9L510.6 43.3H509.7ZM622.8 51.2V123.6H609.4L608.6 112.5H607.7C606.1 115.9 603.7 118.9 600.6 121.1C596.7 123.7 592 125.1 587.3 125C579.1 125 572.8 122.7 568.5 118C564 113.2 561.8 106 561.8 96.5V51.2H577.4V93.6C577.4 99.8 578.4 104.2 580.4 106.8C582.4 109.4 585.8 110.7 590.5 110.7C601.4 110.6 606.9 104.5 607.2 92.4V51.2H622.8ZM674.3 110.2V124C671.1 124.6 667.9 124.9 664.7 124.9C657.3 124.9 651.9 123.3 648.6 120C645.3 116.7 643.6 111.4 643.6 103.8V65.2H632.8V51.2H643.6V32.4H659.2V51.2H674.3V65.3H659.2V103.5C659.2 106.1 659.5 107.9 660.2 108.9C661.1 109.9 662.3 110.5 663.7 110.5C667.2 110.7 670.8 110.7 674.3 110.2ZM716.5 124.9C706.5 124.9 698.4 121.4 692.3 114.4C686.2 107.4 683.2 98.3 683.2 87.1C683.2 76 686.2 67.1 692.3 60.2C698.4 53.3 706.4 49.8 716.5 49.7C726.5 49.7 734.6 53.2 740.8 60.2C747 67.2 750.1 76.2 750 87.1C750 98.4 746.9 107.5 740.8 114.4C734.6 121.3 726.5 124.8 716.5 124.9ZM716.5 110.1C721.5 110.3 726.2 108.1 729.2 104.1C732.4 100 733.9 94.4 733.9 87.2C733.9 80.1 732.4 74.6 729.3 70.6C726.2 66.6 722 64.6 716.5 64.6C711.1 64.6 706.9 66.6 703.8 70.6C700.7 74.6 699.2 80.1 699.3 87.2C699.3 94.4 700.8 100.1 703.9 104.1C707 108.2 711.2 110.2 716.5 110.1Z" fill="black"/>
</g>
<defs>
<clipPath id="clip0_392_875">
<rect width="766.002" height="155" fill="white"/>
</clipPath>
</defs>
</svg>
