<svg width="380" height="98" viewBox="0 0 380 98" fill="none" xmlns="http://www.w3.org/2000/svg">
<path d="M57.0531 62.6611L56.9791 53.6444C58.7037 53.0797 60.215 52.1189 61.5128 50.7619C62.8109 49.4292 63.8966 47.8095 64.7698 45.9027C65.6593 44.0199 66.321 41.9352 66.7547 39.6485C67.1885 37.3619 67.3952 34.9824 67.3749 32.5101C67.3379 28.0018 66.5449 23.9314 64.996 20.2991C63.4473 16.691 61.1856 13.8353 58.2109 11.7319C55.2364 9.65275 51.6 8.65231 47.3019 8.73057C43.0037 8.80882 39.3849 9.94135 36.4454 12.1282C33.5061 14.3392 31.292 17.2764 29.8029 20.9398C28.314 24.6275 27.5881 28.7255 27.6251 33.2338C27.6454 35.7061 27.8911 38.0774 28.3622 40.3475C28.8334 42.6177 29.521 44.6779 30.425 46.528C31.3454 48.4021 32.4654 49.9817 33.7849 51.2668C35.1209 52.5758 36.6474 53.4813 38.3646 53.9833L38.4386 63C35.8961 62.3675 33.6157 61.1727 31.5974 59.4155C29.579 57.6584 27.856 55.4595 26.4283 52.8189C25.0168 50.1779 23.9339 47.2038 23.1795 43.8964C22.4253 40.6132 22.0328 37.0931 22.002 33.3362C21.9498 26.9857 22.9376 21.3194 24.9653 16.3371C26.993 11.3548 29.902 7.41103 33.6921 4.50571C37.4822 1.6004 41.9949 0.100081 47.2303 0.00476225C52.4656 -0.0905565 57.0016 1.24501 60.8383 4.01147C64.675 6.77792 67.6477 10.6146 69.7566 15.5216C71.8654 20.4286 72.9459 26.0573 72.998 32.4077C73.0289 36.1647 72.6943 39.698 71.9942 43.0076C71.2943 46.3415 70.2524 49.3544 68.8685 52.0462C67.5008 54.7377 65.8224 56.9985 63.8335 58.8286C61.8607 60.6584 59.6006 61.9359 57.0531 62.6611Z" fill="#ffffff"/>
<path d="M16.3388 34.4387L16.3563 43.4557C14.6282 44.0096 13.111 44.961 11.8047 46.3098C10.4982 47.6343 9.40249 49.2472 8.51737 51.1485C7.61605 53.0257 6.94136 55.1063 6.49332 57.3901C6.04528 59.674 5.82367 62.0522 5.82848 64.5245C5.83726 69.033 6.60474 73.1082 8.1309 76.7502C9.65702 80.3679 11.9008 83.2378 14.8623 85.3597C17.8237 87.4574 21.4537 88.4806 25.7523 88.4292C30.0508 88.3779 33.6767 87.268 36.6298 85.0997C39.5829 82.907 41.8154 79.9837 43.3273 76.3297C44.8393 72.6515 45.5908 68.5581 45.582 64.0496C45.5772 61.5772 45.3464 59.2045 44.8894 56.9314C44.4325 54.6584 43.7578 52.5939 42.8654 50.7381C41.9568 48.8583 40.8467 47.2717 39.5352 45.9785C38.2075 44.6611 36.6866 43.7461 34.9726 43.2333L34.9551 34.2163C37.4935 34.8647 39.7664 36.0738 41.7737 37.8436C43.781 39.6133 45.4903 41.8229 46.9014 44.4724C48.2963 47.1221 49.3606 50.103 50.0943 53.4151C50.8279 56.7029 51.1984 60.2254 51.2057 63.9824C51.2181 70.3331 50.1948 75.9932 48.136 80.9626C46.0771 85.9321 43.1436 89.8577 39.3354 92.7392C35.5271 95.6207 31.0051 97.0928 25.7693 97.1553C20.5334 97.2179 16.0059 95.8539 12.1866 93.0635C8.36733 90.2731 5.41863 86.4179 3.34052 81.4978C1.26242 76.5777 0.217176 70.9424 0.204807 64.5917C0.19749 60.8347 0.554222 57.3035 1.275 53.9983C1.99573 50.6689 3.05646 47.6626 4.45719 44.9795C5.84175 42.2966 7.5342 40.0463 9.53455 38.2287C11.5187 36.4113 13.7868 35.1479 16.3388 34.4387Z" fill="#ffffff"/>
<path d="M120.358 44.0283H115.926C115.756 43.0813 115.438 42.2479 114.974 41.5283C114.51 40.8086 113.942 40.1978 113.27 39.6959C112.598 39.194 111.845 38.8152 111.011 38.5595C110.188 38.3038 109.312 38.176 108.384 38.176C106.707 38.176 105.206 38.5974 103.881 39.4402C102.564 40.283 101.523 41.5188 100.756 43.1476C99.9981 44.7764 99.6193 46.765 99.6193 49.1135C99.6193 51.4809 99.9981 53.479 100.756 55.1078C101.523 56.7366 102.569 57.9676 103.895 58.801C105.221 59.6343 106.712 60.051 108.369 60.051C109.288 60.051 110.159 59.9279 110.983 59.6817C111.816 59.426 112.569 59.0519 113.241 58.5595C113.914 58.0671 114.482 57.4658 114.946 56.7555C115.42 56.0358 115.746 55.212 115.926 54.2839L120.358 54.2981C120.121 55.7281 119.662 57.0444 118.98 58.247C118.308 59.4402 117.441 60.4724 116.381 61.3436C115.33 62.2053 114.127 62.873 112.773 63.3464C111.419 63.8199 109.941 64.0567 108.341 64.0567C105.822 64.0567 103.578 63.4601 101.608 62.2669C99.6383 61.0642 98.0852 59.3455 96.9489 57.1106C95.822 54.8758 95.2585 52.2101 95.2585 49.1135C95.2585 46.0074 95.8267 43.3417 96.9631 41.1163C98.0994 38.8815 99.6525 37.1675 101.622 35.9743C103.592 34.7716 105.831 34.1703 108.341 34.1703C109.884 34.1703 111.324 34.3928 112.659 34.8379C114.004 35.2735 115.211 35.9175 116.281 36.7697C117.351 37.6125 118.237 38.6447 118.938 39.8663C119.638 41.0784 120.112 42.4658 120.358 44.0283ZM129.516 50.7044V63.6589H125.269V34.568H129.46V45.3919H129.729C130.241 44.2176 131.022 43.2849 132.073 42.5936C133.124 41.9023 134.497 41.5567 136.192 41.5567C137.689 41.5567 138.996 41.8644 140.113 42.48C141.24 43.0955 142.111 44.014 142.727 45.2356C143.352 46.4478 143.664 47.9629 143.664 49.7811V63.6589H139.417V50.2925C139.417 48.6921 139.005 47.4515 138.181 46.5709C137.357 45.6807 136.211 45.2356 134.744 45.2356C133.74 45.2356 132.84 45.4487 132.045 45.8748C131.259 46.301 130.638 46.926 130.184 47.7498C129.739 48.5642 129.516 49.5491 129.516 50.7044ZM149.332 63.6589V41.8408H153.579V63.6589H149.332ZM151.477 38.4743C150.738 38.4743 150.103 38.2281 149.573 37.7356C149.052 37.2337 148.792 36.6372 148.792 35.9459C148.792 35.2451 149.052 34.6485 149.573 34.1561C150.103 33.6542 150.738 33.4033 151.477 33.4033C152.215 33.4033 152.845 33.6542 153.366 34.1561C153.896 34.6485 154.161 35.2451 154.161 35.9459C154.161 36.6372 153.896 37.2337 153.366 37.7356C152.845 38.2281 152.215 38.4743 151.477 38.4743ZM163.54 50.7044V63.6589H159.293V41.8408H163.369V45.3919H163.639C164.141 44.2366 164.927 43.3086 165.997 42.6078C167.077 41.907 168.436 41.5567 170.074 41.5567C171.561 41.5567 172.863 41.8692 173.98 42.4942C175.098 43.1097 175.964 44.0283 176.58 45.2498C177.195 46.4714 177.503 47.9819 177.503 49.7811V63.6589H173.256V50.2925C173.256 48.711 172.844 47.4752 172.02 46.5851C171.196 45.6855 170.064 45.2356 168.625 45.2356C167.64 45.2356 166.764 45.4487 165.997 45.8748C165.24 46.301 164.638 46.926 164.193 47.7498C163.758 48.5642 163.54 49.5491 163.54 50.7044ZM218.288 44.0283H213.856C213.685 43.0813 213.368 42.2479 212.904 41.5283C212.44 40.8086 211.872 40.1978 211.2 39.6959C210.527 39.194 209.774 38.8152 208.941 38.5595C208.117 38.3038 207.241 38.176 206.313 38.176C204.637 38.176 203.136 38.5974 201.81 39.4402C200.494 40.283 199.452 41.5188 198.685 43.1476C197.928 44.7764 197.549 46.765 197.549 49.1135C197.549 51.4809 197.928 53.479 198.685 55.1078C199.452 56.7366 200.499 57.9676 201.825 58.801C203.15 59.6343 204.642 60.051 206.299 60.051C207.218 60.051 208.089 59.9279 208.913 59.6817C209.746 59.426 210.499 59.0519 211.171 58.5595C211.844 58.0671 212.412 57.4658 212.876 56.7555C213.349 56.0358 213.676 55.212 213.856 54.2839L218.288 54.2981C218.051 55.7281 217.592 57.0444 216.91 58.247C216.237 59.4402 215.371 60.4724 214.31 61.3436C213.259 62.2053 212.057 62.873 210.702 63.3464C209.348 63.8199 207.871 64.0567 206.271 64.0567C203.752 64.0567 201.507 63.4601 199.538 62.2669C197.568 61.0642 196.015 59.3455 194.879 57.1106C193.752 54.8758 193.188 52.2101 193.188 49.1135C193.188 46.0074 193.756 43.3417 194.893 41.1163C196.029 38.8815 197.582 37.1675 199.552 35.9743C201.522 34.7716 203.761 34.1703 206.271 34.1703C207.814 34.1703 209.254 34.3928 210.589 34.8379C211.933 35.2735 213.141 35.9175 214.211 36.7697C215.281 37.6125 216.166 38.6447 216.867 39.8663C217.568 41.0784 218.041 42.4658 218.288 44.0283ZM227.446 50.7044V63.6589H223.199V34.568H227.389V45.3919H227.659C228.17 44.2176 228.952 43.2849 230.003 42.5936C231.054 41.9023 232.427 41.5567 234.122 41.5567C235.618 41.5567 236.925 41.8644 238.043 42.48C239.17 43.0955 240.041 44.014 240.656 45.2356C241.281 46.4478 241.594 47.9629 241.594 49.7811V63.6589H237.347V50.2925C237.347 48.6921 236.935 47.4515 236.111 46.5709C235.287 45.6807 234.141 45.2356 232.673 45.2356C231.67 45.2356 230.77 45.4487 229.974 45.8748C229.188 46.301 228.568 46.926 228.114 47.7498C227.669 48.5642 227.446 49.5491 227.446 50.7044ZM247.261 63.6589V41.8408H251.509V63.6589H247.261ZM249.406 38.4743C248.668 38.4743 248.033 38.2281 247.503 37.7356C246.982 37.2337 246.722 36.6372 246.722 35.9459C246.722 35.2451 246.982 34.6485 247.503 34.1561C248.033 33.6542 248.668 33.4033 249.406 33.4033C250.145 33.4033 250.775 33.6542 251.295 34.1561C251.826 34.6485 252.091 35.2451 252.091 35.9459C252.091 36.6372 251.826 37.2337 251.295 37.7356C250.775 38.2281 250.145 38.4743 249.406 38.4743ZM261.469 50.7044V63.6589H257.222V41.8408H261.299V45.3919H261.569C262.071 44.2366 262.857 43.3086 263.927 42.6078C265.006 41.907 266.365 41.5567 268.004 41.5567C269.49 41.5567 270.792 41.8692 271.91 42.4942C273.027 43.1097 273.894 44.0283 274.509 45.2498C275.125 46.4714 275.433 47.9819 275.433 49.7811V63.6589H271.185V50.2925C271.185 48.711 270.773 47.4752 269.95 46.5851C269.126 45.6855 267.994 45.2356 266.555 45.2356C265.57 45.2356 264.694 45.4487 263.927 45.8748C263.169 46.301 262.568 46.926 262.123 47.7498C261.687 48.5642 261.469 49.5491 261.469 50.7044Z" fill="#ffffff"/>
<path d="M294.653 63.6589H289.994L300.463 34.568H305.534L316.003 63.6589H311.344L303.119 39.8521H302.892L294.653 63.6589ZM295.435 52.2669H310.548V55.9601H295.435V52.2669ZM333.684 54.6106V41.8408H337.945V63.6589H333.769V59.8805H333.542C333.04 61.0453 332.235 62.0159 331.127 62.7925C330.029 63.5595 328.66 63.943 327.022 63.943C325.621 63.943 324.38 63.6353 323.3 63.0197C322.23 62.3947 321.388 61.4714 320.772 60.2498C320.166 59.0283 319.863 57.5178 319.863 55.7186V41.8408H324.11V55.2072C324.11 56.694 324.522 57.8777 325.346 58.7584C326.17 59.639 327.24 60.0794 328.556 60.0794C329.352 60.0794 330.142 59.8805 330.928 59.4828C331.724 59.0851 332.382 58.4837 332.903 57.6788C333.433 56.8739 333.693 55.8512 333.684 54.6106ZM353.837 41.8408V45.2498H341.919V41.8408H353.837ZM345.115 36.6135H349.362V57.2527C349.362 58.0765 349.485 58.6968 349.732 59.1135C349.978 59.5207 350.295 59.8 350.683 59.9515C351.081 60.0936 351.512 60.1646 351.976 60.1646C352.317 60.1646 352.615 60.1409 352.871 60.0936C353.126 60.0462 353.325 60.0084 353.467 59.98L354.234 63.4885C353.988 63.5832 353.638 63.6779 353.183 63.7726C352.729 63.8767 352.161 63.9336 351.479 63.943C350.361 63.962 349.32 63.7631 348.354 63.3464C347.388 62.9298 346.607 62.2858 346.01 61.4146C345.413 60.5434 345.115 59.4497 345.115 58.1334V36.6135ZM367.491 64.0993C365.445 64.0993 363.66 63.6305 362.136 62.693C360.611 61.7555 359.427 60.444 358.585 58.7584C357.742 57.0728 357.32 55.1031 357.32 52.8493C357.32 50.586 357.742 48.6069 358.585 46.9118C359.427 45.2167 360.611 43.9004 362.136 42.9629C363.66 42.0254 365.445 41.5567 367.491 41.5567C369.536 41.5567 371.321 42.0254 372.846 42.9629C374.371 43.9004 375.554 45.2167 376.397 46.9118C377.24 48.6069 377.661 50.586 377.661 52.8493C377.661 55.1031 377.24 57.0728 376.397 58.7584C375.554 60.444 374.371 61.7555 372.846 62.693C371.321 63.6305 369.536 64.0993 367.491 64.0993ZM367.505 60.5339C368.831 60.5339 369.929 60.1836 370.8 59.4828C371.672 58.782 372.316 57.8493 372.732 56.6845C373.158 55.5197 373.371 54.2366 373.371 52.8351C373.371 51.443 373.158 50.1646 372.732 48.9998C372.316 47.8256 371.672 46.8834 370.8 46.1731C369.929 45.4629 368.831 45.1078 367.505 45.1078C366.17 45.1078 365.062 45.4629 364.181 46.1731C363.31 46.8834 362.661 47.8256 362.235 48.9998C361.818 50.1646 361.61 51.443 361.61 52.8351C361.61 54.2366 361.818 55.5197 362.235 56.6845C362.661 57.8493 363.31 58.782 364.181 59.4828C365.062 60.1836 366.17 60.5339 367.505 60.5339Z" fill="#ffffff"/>
</svg>
