<svg width="413" height="107" viewBox="0 0 413 107" fill="none" xmlns="http://www.w3.org/2000/svg">
<g clip-path="url(#clip0_468_91)">
<path d="M38.1919 46.8956L38.2254 53.941C36.2009 54.3671 34.424 55.1046 32.8949 56.1535C31.3657 57.1834 30.0838 58.4394 29.0491 59.9215C27.9955 61.3848 27.2077 63.0078 26.6859 64.7906C26.164 66.5734 25.9077 68.4307 25.9169 70.3625C25.9336 73.8851 26.8389 77.0722 28.6328 79.9237C30.4266 82.7562 33.0604 85.0072 36.5343 86.6765C40.0081 88.3269 44.2639 89.1403 49.3017 89.1167C54.3395 89.0931 58.5874 88.2399 62.0454 86.557C65.5033 84.8552 68.1156 82.5797 69.8824 79.7305C71.6491 76.8623 72.524 73.6669 72.5073 70.1442C72.4981 68.2124 72.2242 66.3576 71.6854 64.5798C71.1466 62.802 70.353 61.1864 69.3044 59.7329C68.2368 58.2607 66.9335 57.0168 65.3946 56.0012C63.8366 54.9668 62.0529 54.246 60.0433 53.8388L60.0098 46.7934C62.9858 47.3098 65.6514 48.2632 68.0065 49.6537C70.3616 51.0442 72.368 52.7772 74.0256 54.8528C75.6642 56.9285 76.9159 59.2617 77.7805 61.8524C78.645 64.4241 79.0842 67.1777 79.0981 70.1133C79.1217 75.0754 77.9306 79.4939 75.5247 83.3688C73.1189 87.2438 69.6864 90.2997 65.2272 92.5365C60.7681 94.7733 55.4704 95.9061 49.3341 95.9349C43.1978 95.9636 37.8896 94.8805 33.4094 92.6856C28.9292 90.4906 25.4679 87.467 23.0253 83.6148C20.5827 79.7625 19.3496 75.3554 19.3261 70.3933C19.3121 67.4578 19.7252 64.7001 20.5652 62.1204C21.4051 59.5217 22.644 57.1769 24.2818 55.0859C25.9007 52.9949 27.881 51.2432 30.2228 49.8307C32.5457 48.4183 35.202 47.4399 38.1919 46.8956Z" fill="#000000"/>
<path d="M85.2313 71.2574L85.1445 64.2125C87.1658 63.7712 88.937 63.0205 90.4581 61.9603C91.9795 60.919 93.2519 59.6535 94.2753 58.1637C95.3179 56.6926 96.0934 55.0638 96.6017 53.2772C97.1101 51.4906 97.3523 49.6314 97.3286 47.6997C97.2852 44.1773 96.3558 40.997 94.5405 38.159C92.7253 35.3399 90.0745 33.1087 86.5881 31.4653C83.102 29.8408 78.8401 29.0591 73.8026 29.1203C68.7651 29.1814 64.5238 30.0663 61.0786 31.7749C57.6337 33.5024 55.0387 35.7974 53.2935 38.6597C51.5485 41.5409 50.6977 44.7427 50.7411 48.2652C50.7649 50.1969 51.0528 52.0496 51.605 53.8233C52.1572 55.597 52.9631 57.2067 54.0226 58.6523C55.1013 60.1166 56.4139 61.3507 57.9605 62.3548C59.5263 63.3775 61.3154 64.085 63.328 64.4773L63.4147 71.5222C60.4349 71.028 57.7622 70.0945 55.3966 68.7216C53.0311 67.3487 51.0117 65.6306 49.3384 63.5674C47.6841 61.504 46.4149 59.1803 45.5307 56.5961C44.6468 54.0309 44.1868 51.2806 44.1507 48.3452C44.0896 43.3834 45.2473 38.9562 47.6238 35.0634C50.0003 31.1707 53.4096 28.0893 57.8517 25.8193C62.2938 23.5493 67.5828 22.3771 73.7187 22.3026C79.8546 22.2281 85.1709 23.2716 89.6675 25.4331C94.1642 27.5946 97.6483 30.5923 100.12 34.4263C102.592 38.2602 103.858 42.658 103.919 47.6198C103.955 50.5551 103.563 53.3158 102.742 55.9017C101.922 58.5065 100.701 60.8605 99.0791 62.9637C97.4761 65.0667 95.509 66.8331 93.178 68.263C90.8658 69.6927 88.2169 70.6908 85.2313 71.2574Z" fill="#000000"/>
<path d="M152.526 48.8693H148.094C147.924 47.9223 147.606 47.089 147.142 46.3693C146.678 45.6496 146.11 45.0388 145.438 44.5369C144.766 44.035 144.013 43.6562 143.179 43.4006C142.355 43.1449 141.48 43.017 140.551 43.017C138.875 43.017 137.374 43.4384 136.049 44.2812C134.732 45.1241 133.691 46.3598 132.924 47.9886C132.166 49.6174 131.787 51.6061 131.787 53.9545C131.787 56.322 132.166 58.3201 132.924 59.9489C133.691 61.5777 134.737 62.8087 136.063 63.642C137.389 64.4754 138.88 64.892 140.537 64.892C141.456 64.892 142.327 64.7689 143.151 64.5227C143.984 64.267 144.737 63.893 145.409 63.4006C146.082 62.9081 146.65 62.3068 147.114 61.5966C147.587 60.8769 147.914 60.053 148.094 59.125L152.526 59.1392C152.289 60.5691 151.83 61.8854 151.148 63.0881C150.476 64.2812 149.609 65.3134 148.549 66.1847C147.498 67.0464 146.295 67.714 144.941 68.1875C143.587 68.661 142.109 68.8977 140.509 68.8977C137.99 68.8977 135.746 68.3011 133.776 67.108C131.806 65.9053 130.253 64.1866 129.117 61.9517C127.99 59.7169 127.426 57.0511 127.426 53.9545C127.426 50.8485 127.995 48.1828 129.131 45.9574C130.267 43.7225 131.82 42.0085 133.79 40.8153C135.76 39.6127 137.999 39.0114 140.509 39.0114C142.052 39.0114 143.492 39.2339 144.827 39.679C146.172 40.1146 147.379 40.7585 148.449 41.6108C149.519 42.4536 150.405 43.4858 151.105 44.7074C151.806 45.9195 152.28 47.3068 152.526 48.8693ZM161.684 55.5455V68.5H157.437V39.4091H161.627V50.233H161.897C162.409 49.0587 163.19 48.1259 164.241 47.4347C165.292 46.7434 166.665 46.3977 168.36 46.3977C169.857 46.3977 171.163 46.7055 172.281 47.321C173.408 47.9366 174.279 48.8551 174.895 50.0767C175.52 51.2888 175.832 52.804 175.832 54.6222V68.5H171.585V55.1335C171.585 53.5331 171.173 52.2926 170.349 51.4119C169.525 50.5218 168.379 50.0767 166.912 50.0767C165.908 50.0767 165.008 50.2898 164.213 50.7159C163.427 51.142 162.806 51.767 162.352 52.5909C161.907 53.4053 161.684 54.3902 161.684 55.5455ZM181.5 68.5V46.6818H185.747V68.5H181.5ZM183.645 43.3153C182.906 43.3153 182.271 43.0691 181.741 42.5767C181.22 42.0748 180.96 41.4782 180.96 40.7869C180.96 40.0862 181.22 39.4896 181.741 38.9972C182.271 38.4953 182.906 38.2443 183.645 38.2443C184.383 38.2443 185.013 38.4953 185.534 38.9972C186.064 39.4896 186.329 40.0862 186.329 40.7869C186.329 41.4782 186.064 42.0748 185.534 42.5767C185.013 43.0691 184.383 43.3153 183.645 43.3153ZM195.708 55.5455V68.5H191.461V46.6818H195.537V50.233H195.807C196.309 49.0777 197.095 48.1496 198.165 47.4489C199.245 46.7481 200.604 46.3977 202.242 46.3977C203.729 46.3977 205.031 46.7102 206.148 47.3352C207.266 47.9508 208.132 48.8693 208.748 50.0909C209.363 51.3125 209.671 52.8229 209.671 54.6222V68.5H205.424V55.1335C205.424 53.5521 205.012 52.3163 204.188 51.4261C203.364 50.5265 202.232 50.0767 200.793 50.0767C199.808 50.0767 198.932 50.2898 198.165 50.7159C197.408 51.142 196.806 51.767 196.361 52.5909C195.926 53.4053 195.708 54.3902 195.708 55.5455ZM250.456 48.8693H246.024C245.853 47.9223 245.536 47.089 245.072 46.3693C244.608 45.6496 244.04 45.0388 243.368 44.5369C242.695 44.035 241.942 43.6562 241.109 43.4006C240.285 43.1449 239.409 43.017 238.481 43.017C236.805 43.017 235.304 43.4384 233.978 44.2812C232.662 45.1241 231.62 46.3598 230.853 47.9886C230.096 49.6174 229.717 51.6061 229.717 53.9545C229.717 56.322 230.096 58.3201 230.853 59.9489C231.62 61.5777 232.667 62.8087 233.993 63.642C235.318 64.4754 236.81 64.892 238.467 64.892C239.386 64.892 240.257 64.7689 241.081 64.5227C241.914 64.267 242.667 63.893 243.339 63.4006C244.011 62.9081 244.58 62.3068 245.044 61.5966C245.517 60.8769 245.844 60.053 246.024 59.125L250.456 59.1392C250.219 60.5691 249.76 61.8854 249.078 63.0881C248.405 64.2812 247.539 65.3134 246.478 66.1847C245.427 67.0464 244.225 67.714 242.87 68.1875C241.516 68.661 240.039 68.8977 238.439 68.8977C235.92 68.8977 233.675 68.3011 231.706 67.108C229.736 65.9053 228.183 64.1866 227.047 61.9517C225.92 59.7169 225.356 57.0511 225.356 53.9545C225.356 50.8485 225.924 48.1828 227.061 45.9574C228.197 43.7225 229.75 42.0085 231.72 40.8153C233.69 39.6127 235.929 39.0114 238.439 39.0114C239.982 39.0114 241.422 39.2339 242.757 39.679C244.101 40.1146 245.309 40.7585 246.379 41.6108C247.449 42.4536 248.334 43.4858 249.035 44.7074C249.736 45.9195 250.209 47.3068 250.456 48.8693ZM259.614 55.5455V68.5H255.367V39.4091H259.557V50.233H259.827C260.338 49.0587 261.12 48.1259 262.171 47.4347C263.222 46.7434 264.595 46.3977 266.29 46.3977C267.786 46.3977 269.093 46.7055 270.211 47.321C271.337 47.9366 272.209 48.8551 272.824 50.0767C273.449 51.2888 273.762 52.804 273.762 54.6222V68.5H269.515V55.1335C269.515 53.5331 269.103 52.2926 268.279 51.4119C267.455 50.5218 266.309 50.0767 264.841 50.0767C263.837 50.0767 262.938 50.2898 262.142 50.7159C261.356 51.142 260.736 51.767 260.282 52.5909C259.837 53.4053 259.614 54.3902 259.614 55.5455ZM279.429 68.5V46.6818H283.676V68.5H279.429ZM281.574 43.3153C280.836 43.3153 280.201 43.0691 279.671 42.5767C279.15 42.0748 278.89 41.4782 278.89 40.7869C278.89 40.0862 279.15 39.4896 279.671 38.9972C280.201 38.4953 280.836 38.2443 281.574 38.2443C282.313 38.2443 282.943 38.4953 283.463 38.9972C283.994 39.4896 284.259 40.0862 284.259 40.7869C284.259 41.4782 283.994 42.0748 283.463 42.5767C282.943 43.0691 282.313 43.3153 281.574 43.3153ZM293.637 55.5455V68.5H289.39V46.6818H293.467V50.233H293.737C294.239 49.0777 295.025 48.1496 296.095 47.4489C297.174 46.7481 298.533 46.3977 300.172 46.3977C301.658 46.3977 302.96 46.7102 304.078 47.3352C305.195 47.9508 306.062 48.8693 306.677 50.0909C307.293 51.3125 307.6 52.8229 307.6 54.6222V68.5H303.353V55.1335C303.353 53.5521 302.941 52.3163 302.118 51.4261C301.294 50.5265 300.162 50.0767 298.723 50.0767C297.738 50.0767 296.862 50.2898 296.095 50.7159C295.337 51.142 294.736 51.767 294.291 52.5909C293.855 53.4053 293.637 54.3902 293.637 55.5455Z" fill="#000000"/>
<path d="M326.821 68.5H322.162L332.631 39.4091H337.702L348.171 68.5H343.512L335.287 44.6932H335.06L326.821 68.5ZM327.603 57.108H342.716V60.8011H327.603V57.108ZM365.852 59.4517V46.6818H370.113V68.5H365.937V64.7216H365.71C365.208 65.8864 364.403 66.857 363.295 67.6335C362.197 68.4006 360.828 68.7841 359.19 68.7841C357.788 68.7841 356.548 68.4763 355.468 67.8608C354.398 67.2358 353.556 66.3125 352.94 65.0909C352.334 63.8693 352.031 62.3589 352.031 60.5597V46.6818H356.278V60.0483C356.278 61.535 356.69 62.7187 357.514 63.5994C358.338 64.4801 359.408 64.9205 360.724 64.9205C361.52 64.9205 362.31 64.7216 363.096 64.3239C363.892 63.9261 364.55 63.3248 365.071 62.5199C365.601 61.715 365.861 60.6922 365.852 59.4517ZM386.005 46.6818V50.0909H374.087V46.6818H386.005ZM377.283 41.4545H381.53V62.0938C381.53 62.9176 381.653 63.5379 381.9 63.9545C382.146 64.3617 382.463 64.6411 382.851 64.7926C383.249 64.9347 383.68 65.0057 384.144 65.0057C384.485 65.0057 384.783 64.982 385.039 64.9347C385.294 64.8873 385.493 64.8494 385.635 64.821L386.402 68.3295C386.156 68.4242 385.806 68.5189 385.351 68.6136C384.897 68.7178 384.328 68.7746 383.647 68.7841C382.529 68.803 381.488 68.6042 380.522 68.1875C379.556 67.7708 378.775 67.1269 378.178 66.2557C377.581 65.3845 377.283 64.2907 377.283 62.9744V41.4545ZM399.659 68.9403C397.613 68.9403 395.828 68.4716 394.304 67.5341C392.779 66.5966 391.595 65.285 390.752 63.5994C389.91 61.9138 389.488 59.9441 389.488 57.6903C389.488 55.4271 389.91 53.4479 390.752 51.7528C391.595 50.0578 392.779 48.7415 394.304 47.804C395.828 46.8665 397.613 46.3977 399.659 46.3977C401.704 46.3977 403.489 46.8665 405.014 47.804C406.538 48.7415 407.722 50.0578 408.565 51.7528C409.408 53.4479 409.829 55.4271 409.829 57.6903C409.829 59.9441 409.408 61.9138 408.565 63.5994C407.722 65.285 406.538 66.5966 405.014 67.5341C403.489 68.4716 401.704 68.9403 399.659 68.9403ZM399.673 65.375C400.999 65.375 402.097 65.0246 402.968 64.3239C403.84 63.6231 404.484 62.6903 404.9 61.5256C405.326 60.3608 405.539 59.0777 405.539 57.6761C405.539 56.2841 405.326 55.0057 404.9 53.8409C404.484 52.6667 403.84 51.7244 402.968 51.0142C402.097 50.304 400.999 49.9489 399.673 49.9489C398.338 49.9489 397.23 50.304 396.349 51.0142C395.478 51.7244 394.829 52.6667 394.403 53.8409C393.986 55.0057 393.778 56.2841 393.778 57.6761C393.778 59.0777 393.986 60.3608 394.403 61.5256C394.829 62.6903 395.478 63.6231 396.349 64.3239C397.23 65.0246 398.338 65.375 399.673 65.375Z" fill="#000000"/>
</g>
<defs>
<clipPath id="clip0_468_91">
<rect width="412.168" height="107" fill="#000000"/>
</clipPath>
</defs>
</svg>
