<svg width="800" height="800" viewBox="0 0 800 800" fill="none" xmlns="http://www.w3.org/2000/svg">
<g clip-path="url(#clip0_392_932)">
<path d="M426.203 799.497C416.601 799.497 407.007 795.842 399.701 788.542C399.121 787.963 398.66 787.274 398.346 786.517C398.032 785.759 397.871 784.947 397.871 784.127C397.871 783.306 398.032 782.494 398.346 781.737C398.66 780.979 399.121 780.291 399.701 779.711C400.281 779.131 400.97 778.67 401.727 778.356C402.485 778.042 403.297 777.881 404.118 777.881C404.938 777.881 405.75 778.042 406.508 778.356C407.266 778.67 407.954 779.131 408.534 779.711C418.292 789.456 434.151 789.444 443.886 779.698C453.615 769.958 453.609 754.111 443.861 744.372C443.28 743.792 442.82 743.104 442.506 742.346C442.192 741.589 442.03 740.776 442.03 739.956C442.03 739.136 442.192 738.324 442.506 737.566C442.82 736.809 443.28 736.12 443.861 735.541C444.44 734.96 445.129 734.5 445.886 734.186C446.644 733.872 447.456 733.71 448.276 733.71C449.096 733.71 449.909 733.872 450.666 734.186C451.424 734.5 452.112 734.96 452.692 735.541C467.306 750.142 467.317 773.911 452.717 788.531C445.409 795.836 435.801 799.497 426.203 799.497ZM488.054 737.684C478.032 737.684 468.615 733.781 461.534 726.694C460.954 726.114 460.493 725.426 460.179 724.668C459.865 723.911 459.703 723.098 459.703 722.278C459.703 721.458 459.865 720.646 460.179 719.888C460.493 719.13 460.954 718.442 461.534 717.862C462.114 717.282 462.802 716.822 463.56 716.508C464.317 716.193 465.129 716.032 465.95 716.032C466.77 716.032 467.582 716.193 468.34 716.508C469.097 716.822 469.786 717.282 470.365 717.862C479.795 727.298 496.256 727.323 505.692 717.888C515.432 708.148 515.426 692.294 505.679 682.548L457.104 633.948C456.524 633.369 456.064 632.68 455.751 631.923C455.437 631.165 455.275 630.353 455.275 629.533C455.275 628.713 455.437 627.901 455.751 627.143C456.064 626.385 456.524 625.697 457.104 625.117C457.684 624.537 458.373 624.077 459.13 623.764C459.888 623.45 460.7 623.288 461.52 623.288C462.34 623.288 463.152 623.45 463.91 623.764C464.667 624.077 465.356 624.537 465.936 625.117L514.511 673.717C529.131 688.331 529.131 712.113 514.523 726.72C507.462 733.788 498.059 737.684 488.054 737.684ZM549.859 675.844C540.257 675.844 530.665 672.191 523.357 664.883L474.782 616.306C474.203 615.726 473.743 615.038 473.429 614.28C473.115 613.523 472.953 612.711 472.953 611.891C472.953 611.071 473.115 610.259 473.429 609.501C473.743 608.743 474.203 608.055 474.782 607.475C475.362 606.895 476.051 606.435 476.808 606.121C477.566 605.808 478.378 605.646 479.198 605.646C480.018 605.646 480.83 605.808 481.588 606.121C482.345 606.435 483.034 606.895 483.614 607.475L532.189 656.052C541.936 665.797 557.782 665.797 567.528 656.052C577.275 646.305 577.275 630.445 567.528 620.698L518.94 572.136C516.5 569.697 516.5 565.744 518.94 563.305C521.381 560.866 525.334 560.864 527.772 563.305L576.359 611.867C590.979 626.483 590.979 650.27 576.359 664.884C569.054 672.191 559.461 675.844 549.859 675.844ZM611.693 614.009C602.1 614.009 592.507 610.361 585.198 603.066L536.604 554.461C536.024 553.881 535.564 553.193 535.25 552.435C534.937 551.677 534.775 550.865 534.775 550.045C534.775 549.225 534.937 548.413 535.25 547.656C535.564 546.898 536.024 546.21 536.604 545.63C537.184 545.049 537.872 544.589 538.63 544.275C539.388 543.961 540.2 543.799 541.02 543.799C541.84 543.799 542.652 543.961 543.41 544.275C544.168 544.589 544.856 545.049 545.436 545.63L594.023 594.23C603.77 603.953 619.617 603.964 629.351 594.23C639.097 584.483 639.097 568.625 629.351 558.878L465.951 395.486C465.371 394.906 464.91 394.218 464.596 393.46C464.282 392.703 464.121 391.891 464.121 391.07C464.121 390.25 464.282 389.438 464.596 388.68C464.91 387.923 465.371 387.234 465.951 386.655C466.531 386.074 467.219 385.614 467.977 385.3C468.734 384.986 469.547 384.824 470.367 384.824C471.187 384.824 471.999 384.986 472.757 385.3C473.515 385.614 474.203 386.074 474.782 386.655L638.184 550.044C652.803 564.659 652.803 588.445 638.184 603.059C630.89 610.361 621.295 614.009 611.693 614.009ZM152.779 520.584C151.627 520.586 150.496 520.268 149.513 519.665C148.53 519.063 147.733 518.201 147.211 517.173C120.161 464.116 111.261 411.955 110.895 409.758C110.624 408.125 111.012 406.451 111.973 405.104C112.935 403.757 114.392 402.847 116.025 402.573C119.459 402.061 122.642 404.311 123.215 407.703C123.301 408.228 132.2 460.23 158.336 511.503C158.822 512.454 159.056 513.515 159.015 514.582C158.974 515.65 158.66 516.689 158.102 517.601C157.545 518.512 156.762 519.265 155.83 519.788C154.898 520.31 153.848 520.584 152.779 520.584ZM339.804 298.189C338.977 298.19 338.158 298.026 337.395 297.706C294.029 279.548 264.611 264.258 264.318 264.105C262.851 263.337 261.748 262.018 261.251 260.437C260.755 258.857 260.906 257.144 261.672 255.675C262.049 254.946 262.568 254.299 263.197 253.771C263.826 253.243 264.553 252.845 265.336 252.599C266.119 252.353 266.944 252.264 267.761 252.338C268.579 252.411 269.374 252.646 270.101 253.028C270.389 253.181 299.372 268.247 342.214 286.178C343.543 286.737 344.637 287.739 345.313 289.013C345.988 290.287 346.202 291.755 345.918 293.168C345.634 294.582 344.871 295.854 343.757 296.769C342.642 297.684 341.246 298.186 339.804 298.189ZM636.667 528.245C635.519 528.246 634.394 527.93 633.414 527.332C632.434 526.735 631.638 525.879 631.113 524.858C630.588 523.838 630.354 522.692 630.438 521.548C630.521 520.403 630.918 519.304 631.586 518.37C668.87 466.094 676.056 391.255 676.123 390.505C676.44 387.077 679.386 384.503 682.912 384.85C684.562 385.001 686.084 385.802 687.144 387.075C688.204 388.348 688.715 389.989 688.565 391.639C688.272 394.834 680.984 470.627 641.761 525.63C641.181 526.44 640.417 527.1 639.531 527.555C638.645 528.01 637.663 528.247 636.667 528.245ZM373.204 781.844H373.198C363.195 781.844 353.784 777.941 346.709 770.867C332.107 756.27 332.107 732.494 346.703 717.869L373.204 691.367C387.379 677.206 412.057 677.217 426.197 691.38C440.804 705.987 440.804 729.763 426.197 744.372L399.712 770.855C392.625 777.941 383.212 781.844 373.204 781.844ZM399.706 692.891C396.423 692.882 393.17 693.525 390.136 694.78C387.102 696.035 384.347 697.879 382.029 700.205L355.54 726.694C345.812 736.447 345.806 752.3 355.54 762.034C357.853 764.361 360.605 766.206 363.636 767.463C366.667 768.719 369.917 769.361 373.198 769.353H373.204C379.878 769.353 386.154 766.75 390.879 762.023L417.364 735.541C427.103 725.8 427.103 709.952 417.364 700.212C415.052 697.884 412.3 696.037 409.269 694.78C406.238 693.524 402.987 692.881 399.706 692.891ZM311.368 720.016C301.365 720.016 291.961 716.119 284.886 709.044C270.284 694.425 270.284 670.648 284.886 656.028L320.214 620.7C334.376 606.556 359.079 606.544 373.204 620.7C387.818 635.316 387.818 659.091 373.204 673.705L337.878 709.031C330.795 716.112 321.378 720.016 311.368 720.016ZM346.72 622.225C343.437 622.214 340.185 622.855 337.151 624.109C334.117 625.363 331.362 627.206 329.045 629.531L293.717 664.859C283.982 674.605 283.982 690.466 293.717 700.211C296.029 702.537 298.78 704.381 301.81 705.636C304.84 706.891 308.089 707.534 311.368 707.525C314.653 707.532 317.906 706.889 320.94 705.631C323.974 704.374 326.729 702.528 329.045 700.2L364.372 664.873C374.112 655.133 374.112 639.273 364.372 629.533C362.06 627.207 359.309 625.363 356.279 624.108C353.249 622.854 350 622.214 346.72 622.225ZM249.545 658.173C239.529 658.173 230.125 654.283 223.061 647.205C215.979 640.138 212.076 630.725 212.07 620.716C212.054 615.79 213.015 610.911 214.897 606.36C216.78 601.809 219.547 597.676 223.037 594.202L249.545 567.706C263.701 553.538 288.404 553.548 302.548 567.719C309.629 574.783 313.528 584.188 313.528 594.202C313.528 604.205 309.629 613.617 302.548 620.697L276.04 647.205C268.959 654.283 259.548 658.173 249.545 658.173ZM276.042 569.222C272.76 569.213 269.509 569.855 266.476 571.111C263.444 572.367 260.692 574.213 258.378 576.541L231.87 603.036C229.544 605.352 227.7 608.107 226.446 611.141C225.192 614.175 224.552 617.428 224.564 620.711C224.558 623.994 225.204 627.245 226.462 630.276C227.72 633.308 229.567 636.061 231.895 638.375C241.312 647.805 257.768 647.805 267.211 638.375L293.718 611.867C296.046 609.553 297.891 606.8 299.148 603.768C300.404 600.736 301.047 597.485 301.039 594.203C301.039 587.531 298.44 581.267 293.725 576.558C291.409 574.226 288.654 572.376 285.619 571.117C282.583 569.858 279.328 569.213 276.042 569.222ZM187.717 596.352H187.711C177.701 596.352 168.297 592.459 161.228 585.383C146.618 570.764 146.618 546.989 161.228 532.38L178.892 514.716C193.048 500.553 217.714 500.577 231.87 514.728C238.951 521.808 242.85 531.214 242.856 541.217C242.862 551.22 238.964 560.627 231.882 567.706L214.218 585.37C207.136 592.453 197.725 596.352 187.717 596.352ZM205.368 516.236C202.09 516.228 198.842 516.87 195.813 518.126C192.784 519.381 190.035 521.225 187.723 523.55L170.059 541.214C160.325 550.955 160.325 566.806 170.059 576.553C172.372 578.878 175.123 580.721 178.153 581.976C181.183 583.23 184.431 583.871 187.711 583.861H187.717C194.39 583.861 200.665 581.262 205.387 576.541L223.051 558.877C227.772 554.156 230.365 547.886 230.365 541.219C230.365 534.552 227.761 528.283 223.04 523.561C218.311 518.841 212.04 516.236 205.368 516.236ZM320.225 428.52C310.623 428.52 301.023 424.861 293.717 417.553C279.109 402.945 279.109 379.183 293.717 364.575L351.125 307.144C404.97 253.298 526.189 235.458 531.317 234.72C534.697 234.177 537.893 236.598 538.387 240.02C538.621 241.661 538.194 243.327 537.2 244.653C536.206 245.978 534.726 246.855 533.086 247.089C531.865 247.259 410.848 265.081 359.954 315.975L302.548 373.406C292.814 383.141 292.814 398.988 302.548 408.722C312.289 418.469 328.134 418.469 337.876 408.734C341.122 405.489 417.82 329.723 457.118 368.98C457.698 369.56 458.158 370.248 458.472 371.006C458.786 371.763 458.948 372.575 458.948 373.395C458.948 374.215 458.786 375.027 458.472 375.785C458.158 376.543 457.698 377.231 457.118 377.811C456.539 378.391 455.85 378.852 455.093 379.166C454.335 379.48 453.523 379.642 452.703 379.642C451.883 379.642 451.07 379.48 450.313 379.166C449.555 378.852 448.867 378.391 448.287 377.811C422.95 352.511 366.372 397.914 346.707 417.566C339.407 424.867 329.814 428.52 320.225 428.52ZM708.853 388.484C708.032 388.486 707.22 388.325 706.462 388.011C705.704 387.697 705.016 387.236 704.437 386.655L536.618 218.825C536.038 218.245 535.578 217.557 535.264 216.799C534.951 216.042 534.789 215.229 534.789 214.409C534.789 213.589 534.951 212.777 535.264 212.02C535.578 211.262 536.038 210.574 536.618 209.994C537.198 209.413 537.886 208.953 538.644 208.639C539.402 208.325 540.214 208.163 541.034 208.163C541.854 208.163 542.666 208.325 543.424 208.639C544.182 208.953 544.87 209.413 545.45 209.994L713.268 377.823C714.142 378.697 714.738 379.809 714.979 381.021C715.22 382.233 715.097 383.489 714.624 384.63C714.151 385.771 713.351 386.747 712.323 387.433C711.296 388.119 710.088 388.485 708.853 388.484ZM770.687 361.977C769.867 361.978 769.054 361.817 768.297 361.503C767.539 361.189 766.85 360.728 766.272 360.147L563.114 157.002C562.534 156.422 562.074 155.733 561.76 154.976C561.446 154.218 561.284 153.406 561.284 152.586C561.284 151.766 561.446 150.954 561.76 150.196C562.074 149.439 562.534 148.75 563.114 148.17C563.693 147.59 564.382 147.13 565.139 146.815C565.897 146.501 566.709 146.34 567.529 146.34C568.35 146.34 569.162 146.501 569.919 146.815C570.677 147.13 571.365 147.59 571.945 148.17L775.103 351.316C775.977 352.189 776.572 353.302 776.813 354.513C777.055 355.725 776.931 356.981 776.458 358.122C775.986 359.263 775.185 360.239 774.158 360.925C773.13 361.611 771.923 361.977 770.687 361.977Z" fill="#5C4636"/>
<path d="M541.034 220.655C539.799 220.655 538.591 220.289 537.563 219.603C536.536 218.917 535.735 217.942 535.263 216.8C534.79 215.659 534.666 214.403 534.908 213.191C535.149 211.98 535.744 210.867 536.618 209.994L563.114 183.497C563.693 182.917 564.382 182.457 565.14 182.143C565.897 181.829 566.709 181.668 567.529 181.668C568.349 181.668 569.161 181.829 569.919 182.143C570.677 182.457 571.365 182.917 571.945 183.497C572.525 184.077 572.985 184.765 573.299 185.523C573.612 186.28 573.774 187.092 573.774 187.913C573.774 188.733 573.612 189.545 573.299 190.302C572.985 191.06 572.525 191.748 571.945 192.328L545.45 218.825C544.871 219.406 544.182 219.867 543.425 220.181C542.667 220.495 541.854 220.656 541.034 220.655ZM708.853 388.484C708.032 388.486 707.22 388.325 706.462 388.011C705.704 387.697 705.016 387.236 704.437 386.655C703.857 386.075 703.396 385.387 703.082 384.629C702.768 383.871 702.606 383.059 702.606 382.239C702.606 381.419 702.768 380.607 703.082 379.849C703.396 379.091 703.857 378.403 704.437 377.823L730.932 351.327C731.512 350.747 732.201 350.287 732.959 349.973C733.716 349.659 734.528 349.498 735.349 349.498C736.169 349.498 736.981 349.659 737.738 349.973C738.496 350.287 739.185 350.747 739.764 351.327C740.344 351.907 740.804 352.596 741.118 353.354C741.432 354.111 741.593 354.923 741.593 355.744C741.593 356.564 741.431 357.376 741.118 358.133C740.804 358.891 740.344 359.58 739.764 360.159L713.268 386.655C712.689 387.236 712.001 387.696 711.243 388.01C710.485 388.324 709.673 388.485 708.853 388.484ZM567.529 158.831C566.294 158.832 565.086 158.466 564.059 157.78C563.031 157.094 562.231 156.118 561.758 154.977C561.285 153.835 561.162 152.579 561.403 151.368C561.644 150.156 562.24 149.043 563.114 148.17L708.951 2.33438C709.531 1.75451 710.219 1.29454 710.977 0.980716C711.735 0.666893 712.547 0.505371 713.367 0.505371C714.187 0.505371 714.999 0.666893 715.756 0.980716C716.514 1.29454 717.202 1.75451 717.782 2.33438C718.362 2.91425 718.822 3.60265 719.136 4.36029C719.45 5.11792 719.611 5.92995 719.611 6.75001C719.611 7.57007 719.45 8.38209 719.136 9.13973C718.822 9.89736 718.362 10.5858 717.782 11.1656L571.945 157.002C571.366 157.583 570.678 158.044 569.92 158.358C569.162 158.672 568.35 158.833 567.529 158.831ZM770.687 361.977C769.867 361.978 769.054 361.817 768.296 361.503C767.539 361.189 766.85 360.728 766.271 360.147C765.691 359.567 765.231 358.879 764.917 358.121C764.602 357.364 764.441 356.551 764.441 355.731C764.441 354.911 764.602 354.099 764.917 353.341C765.231 352.584 765.691 351.895 766.271 351.316L789.34 328.272C789.92 327.692 790.608 327.232 791.366 326.918C792.124 326.604 792.936 326.443 793.756 326.443C794.576 326.443 795.388 326.604 796.146 326.918C796.903 327.232 797.592 327.692 798.171 328.272C798.751 328.852 799.211 329.54 799.525 330.298C799.839 331.055 800 331.867 800 332.688C800 333.508 799.839 334.32 799.525 335.077C799.211 335.835 798.751 336.523 798.171 337.103L775.103 360.147C774.524 360.728 773.835 361.189 773.078 361.503C772.32 361.817 771.507 361.978 770.687 361.977ZM90.5605 406.123C89.3249 406.124 88.1169 405.759 87.0893 405.073C86.0617 404.387 85.2608 403.411 84.7879 402.27C84.3149 401.128 84.1913 399.872 84.4325 398.66C84.6738 397.449 85.2692 396.336 86.1433 395.462L253.973 227.656C256.412 225.216 260.365 225.216 262.804 227.656C265.243 230.097 265.245 234.048 262.804 236.488L94.9761 404.294C94.3967 404.874 93.7084 405.335 92.9506 405.649C92.1929 405.963 91.3807 406.124 90.5605 406.123ZM28.737 379.641C27.9167 379.642 27.1044 379.481 26.3466 379.167C25.5888 378.853 24.9005 378.392 24.3214 377.811C23.7411 377.231 23.2807 376.543 22.9665 375.785C22.6524 375.028 22.4907 374.216 22.4907 373.395C22.4907 372.575 22.6524 371.763 22.9665 371.005C23.2807 370.248 23.7411 369.559 24.3214 368.98L227.479 165.834C228.059 165.254 228.747 164.794 229.505 164.48C230.262 164.165 231.075 164.004 231.895 164.004C232.715 164.004 233.527 164.165 234.285 164.48C235.043 164.794 235.731 165.254 236.31 165.834C236.891 166.414 237.351 167.102 237.665 167.86C237.979 168.618 238.141 169.43 238.141 170.25C238.141 171.07 237.979 171.882 237.665 172.64C237.351 173.398 236.891 174.086 236.31 174.666L33.1526 377.811C32.5735 378.392 31.8852 378.852 31.1274 379.166C30.3697 379.48 29.5573 379.642 28.737 379.641Z" fill="#5C4636"/>
<path d="M90.5606 406.123C89.7401 406.124 88.9276 405.963 88.1696 405.649C87.4116 405.335 86.723 404.874 86.1434 404.294L59.6481 377.811C57.2074 375.37 57.2074 371.419 59.6481 368.98C62.0887 366.541 66.0402 366.539 68.4793 368.98L94.9762 395.462C95.8502 396.336 96.4455 397.448 96.6868 398.66C96.9282 399.872 96.8046 401.128 96.3319 402.269C95.8592 403.41 95.0584 404.386 94.0311 405.072C93.0038 405.758 91.796 406.124 90.5606 406.123ZM258.39 238.317C257.57 238.318 256.758 238.157 256 237.843C255.242 237.529 254.554 237.068 253.975 236.487L227.478 209.992C226.897 209.413 226.437 208.724 226.123 207.967C225.809 207.209 225.647 206.397 225.647 205.577C225.647 204.756 225.809 203.944 226.123 203.187C226.437 202.429 226.897 201.741 227.478 201.161C228.057 200.581 228.746 200.12 229.503 199.806C230.261 199.492 231.073 199.33 231.893 199.33C232.714 199.33 233.526 199.492 234.283 199.806C235.041 200.12 235.729 200.581 236.309 201.161L262.806 227.656C263.386 228.236 263.847 228.924 264.161 229.682C264.475 230.439 264.637 231.252 264.637 232.072C264.637 232.892 264.475 233.704 264.161 234.462C263.847 235.22 263.386 235.908 262.806 236.487C262.227 237.068 261.538 237.529 260.781 237.843C260.023 238.157 259.211 238.318 258.39 238.317ZM28.7371 379.641C27.9168 379.642 27.1044 379.481 26.3466 379.167C25.5888 378.853 24.9006 378.392 24.3215 377.811L2.29024 355.78C1.13107 354.606 0.483294 353.021 0.488331 351.372C0.493367 349.722 1.15081 348.142 2.31712 346.975C3.48343 345.809 5.06389 345.151 6.71344 345.146C8.36299 345.14 9.94766 345.788 11.1215 346.947L33.1527 368.978C33.7331 369.558 34.1935 370.246 34.5076 371.004C34.8217 371.761 34.9834 372.574 34.9834 373.394C34.9834 374.214 34.8217 375.026 34.5076 375.784C34.1935 376.541 33.7331 377.23 33.1527 377.809C32.5739 378.391 31.8857 378.852 31.1279 379.166C30.37 379.48 29.5575 379.642 28.7371 379.641ZM231.893 176.495C231.073 176.496 230.261 176.335 229.503 176.021C228.745 175.707 228.057 175.246 227.478 174.666L64.0277 11.2141C61.5871 8.77343 61.5871 4.82186 64.0277 2.3828C66.4684 -0.0562621 70.4199 -0.0578247 72.859 2.3828L236.309 165.833C236.889 166.412 237.35 167.101 237.664 167.858C237.978 168.616 238.14 169.428 238.14 170.248C238.14 171.069 237.978 171.881 237.664 172.638C237.35 173.396 236.889 174.084 236.309 174.664C235.73 175.245 235.042 175.706 234.284 176.021C233.526 176.335 232.714 176.496 231.893 176.495ZM18.7215 324.831C16.258 324.838 13.8175 324.357 11.5413 323.415C9.26504 322.473 7.19827 321.088 5.46055 319.342C-1.82851 312.017 -1.81601 300.136 5.47305 292.847C12.5246 285.772 24.9121 285.766 31.9746 292.853C33.718 294.587 35.0998 296.65 36.04 298.922C36.9801 301.194 37.4597 303.63 37.4512 306.089C37.4604 308.551 36.9805 310.991 36.0393 313.266C35.0981 315.541 33.7143 317.606 31.9684 319.342C30.2341 321.089 28.1699 322.474 25.8958 323.416C23.6217 324.359 21.1831 324.84 18.7215 324.831ZM18.7215 299.848C17.0496 299.848 15.4824 300.495 14.3121 301.672C13.1404 302.846 12.4817 304.437 12.4806 306.096C12.4794 307.754 13.1358 309.346 14.3059 310.522C16.6356 312.845 20.7777 312.864 23.1309 310.516C23.7133 309.936 24.175 309.247 24.489 308.488C24.8031 307.729 24.9634 306.915 24.9606 306.094C24.9606 304.422 24.3137 302.855 23.1371 301.678C22.5594 301.095 21.8714 300.633 21.1133 300.319C20.3552 300.005 19.5421 299.845 18.7215 299.848Z" fill="#5C4636"/>
</g>
<defs>
<clipPath id="clip0_392_932">
<rect width="800" height="800" fill="white"/>
</clipPath>
</defs>
</svg>
