<svg width="800" height="800" viewBox="0 0 800 800" fill="none" xmlns="http://www.w3.org/2000/svg">
<path d="M750 725C750 697.388 727.612 675 700 675H675V312.5H750C772.438 312.5 792.112 297.575 798.15 275.975C804.2 254.375 795.125 231.4 775.963 219.762L425.962 7.2625C417.987 2.4125 408.987 0 400 0C391.013 0 382.025 2.4125 374.05 7.2625L24.05 219.762C4.8875 231.4 -4.2 254.387 1.8625 275.975C7.9 297.575 27.5875 312.5 50 312.5H125V675H100C72.3875 675 50 697.388 50 725C22.3875 725 0 747.388 0 775V800H800V775C800 747.388 777.612 725 750 725ZM650 675H600V312.5H650V675ZM225 312.5H275V675H225V312.5ZM300 312.5H350V675H300V312.5ZM375 312.5H425V675H375V312.5ZM450 312.5H500V675H450V312.5ZM525 312.5H575V675H525V312.5ZM50 287.5C38.8375 287.5 28.9375 279.987 25.925 269.225C22.9125 258.487 27.475 246.925 37.025 241.138L387.025 28.625C390.938 26.25 395.438 25 400 25C404.587 25 409.063 26.25 412.988 28.6375L762.988 241.138C772.538 246.925 777.1 258.487 774.075 269.237C771.075 279.987 761.162 287.5 750 287.5H50ZM150 312.5H200V675H150V312.5ZM100 700H700C713.812 700 725 711.2 725 725H75C75 711.2 86.2 700 100 700ZM25 775C25 761.2 36.2 750 50 750H750C763.812 750 775 761.2 775 775H25Z" fill="#5C4636"/>
<path d="M400 112.5C365.475 112.5 337.5 140.475 337.5 175C337.5 209.525 365.475 237.5 400 237.5C434.525 237.5 462.5 209.525 462.5 175C462.5 140.475 434.525 112.5 400 112.5ZM400 212.5C379.3 212.5 362.5 195.713 362.5 175C362.5 154.288 379.3 137.5 400 137.5C420.725 137.5 437.5 154.288 437.5 175C437.5 195.713 420.725 212.5 400 212.5Z" fill="#5C4636"/>
</svg>
