<svg width="800" height="800" viewBox="0 0 800 800" fill="none" xmlns="http://www.w3.org/2000/svg">
<path d="M606.205 749.927H43.8203C42.9997 749.927 42.187 749.766 41.4287 749.452C40.6704 749.138 39.9814 748.678 39.4011 748.097C38.8208 747.517 38.3606 746.828 38.0467 746.07C37.7328 745.312 37.5715 744.499 37.5719 743.678V56.3203C37.5715 55.4997 37.7328 54.687 38.0467 53.9287C38.3606 53.1704 38.8208 52.4814 39.4011 51.9011C39.9814 51.3208 40.6704 50.8606 41.4287 50.5467C42.187 50.2328 42.9997 50.0715 43.8203 50.0719H81.3125C84.7657 50.0719 87.561 52.8672 87.561 56.3203C87.561 59.7735 84.7657 62.5703 81.3125 62.5703H50.0703V737.43H599.956V62.5703H568.713C565.259 62.5703 562.464 59.775 562.464 56.3203C562.464 52.8656 565.259 50.0719 568.713 50.0719H606.205C607.025 50.0715 607.838 50.2328 608.596 50.5467C609.355 50.8606 610.044 51.3208 610.624 51.9011C611.204 52.4814 611.664 53.1704 611.978 53.9287C612.292 54.687 612.454 55.4997 612.453 56.3203V743.678C612.454 744.499 612.293 745.312 611.979 746.07C611.665 746.828 611.205 747.518 610.624 748.098C610.044 748.678 609.355 749.138 608.597 749.452C607.838 749.766 607.025 749.927 606.205 749.927Z" fill="#5C4636"/>
<path d="M518.722 62.5703H481.23C477.775 62.5703 474.981 59.775 474.981 56.3203C474.981 52.8656 477.775 50.0719 481.23 50.0719H518.722C522.175 50.0719 524.97 52.8672 524.97 56.3203C524.97 59.7735 522.175 62.5703 518.722 62.5703ZM431.241 62.5703H393.748C390.295 62.5703 387.5 59.775 387.5 56.3203C387.5 52.8656 390.295 50.0719 393.748 50.0719H431.241C434.694 50.0719 437.489 52.8672 437.489 56.3203C437.489 59.7735 434.694 62.5703 431.241 62.5703ZM343.759 62.5703H306.267C302.813 62.5703 300.019 59.775 300.019 56.3203C300.019 52.8656 302.813 50.0719 306.267 50.0719H343.759C347.213 50.0719 350.008 52.8672 350.008 56.3203C350.008 59.7735 347.213 62.5703 343.759 62.5703ZM256.278 62.5703H218.786C215.331 62.5703 212.536 59.775 212.536 56.3203C212.536 52.8656 215.331 50.0719 218.786 50.0719H256.278C259.731 50.0719 262.527 52.8672 262.527 56.3203C262.527 59.7735 259.731 62.5703 256.278 62.5703ZM168.795 62.5703H131.303C127.848 62.5703 125.053 59.775 125.053 56.3203C125.053 52.8656 127.848 50.0719 131.303 50.0719H168.795C170.453 50.0719 172.042 50.7303 173.214 51.9023C174.386 53.0742 175.045 54.6637 175.045 56.3211C175.045 57.9785 174.386 59.568 173.214 60.74C172.042 61.9119 170.453 62.5703 168.795 62.5703ZM599.956 774.922H43.8203C42.9997 774.922 42.187 774.761 41.4287 774.447C40.6704 774.133 39.9814 773.673 39.4011 773.093C38.8208 772.512 38.3606 771.823 38.0467 771.065C37.7328 770.307 37.5715 769.494 37.5719 768.673C37.5715 767.853 37.7328 767.04 38.0467 766.282C38.3606 765.524 38.8208 764.835 39.4011 764.254C39.9814 763.674 40.6704 763.214 41.4287 762.9C42.187 762.586 42.9997 762.425 43.8203 762.425H599.955C600.775 762.424 601.588 762.586 602.347 762.899C603.105 763.213 603.794 763.673 604.374 764.254C604.955 764.834 605.415 765.523 605.729 766.282C606.043 767.04 606.204 767.853 606.203 768.673C606.204 769.494 606.043 770.307 605.729 771.065C605.416 771.824 604.956 772.513 604.375 773.093C603.795 773.673 603.106 774.134 602.348 774.448C601.59 774.761 600.777 774.923 599.956 774.922ZM599.956 799.917H43.8203C42.9995 799.918 42.1867 799.756 41.4283 799.442C40.6699 799.128 39.9809 798.668 39.4006 798.087C38.8202 797.507 38.36 796.818 38.0462 796.059C37.7325 795.301 37.5713 794.488 37.5719 793.667C37.5715 792.847 37.7328 792.034 38.0467 791.276C38.3606 790.517 38.8208 789.828 39.4011 789.248C39.9814 788.668 40.6704 788.207 41.4287 787.894C42.187 787.58 42.9997 787.418 43.8203 787.419H599.955C600.775 787.418 601.588 787.58 602.346 787.894C603.105 788.207 603.794 788.668 604.374 789.248C604.954 789.828 605.414 790.517 605.728 791.276C606.042 792.034 606.204 792.847 606.203 793.667C606.204 794.488 606.043 795.301 605.73 796.06C605.416 796.818 604.956 797.507 604.376 798.088C603.796 798.668 603.107 799.129 602.348 799.443C601.59 799.757 600.777 799.918 599.956 799.917Z" fill="#5C4636"/>
<path d="M106.308 112.559C95.9703 112.559 87.5609 104.15 87.5609 93.8126V18.8282C87.5609 8.49067 95.9703 0.0812988 106.308 0.0812988C116.645 0.0812988 125.055 8.49067 125.055 18.8282V93.8126C125.055 104.15 116.645 112.559 106.308 112.559ZM106.308 12.5797C104.651 12.5818 103.063 13.241 101.891 14.4127C100.72 15.5844 100.061 17.1729 100.059 18.8297V93.8141C100.059 97.2626 102.866 100.064 106.308 100.064C107.965 100.064 109.554 99.405 110.726 98.233C111.898 97.0609 112.556 95.4715 112.556 93.8141V18.8297C112.556 17.1724 111.898 15.5829 110.726 14.4109C109.554 13.2388 107.965 12.5802 106.308 12.5797ZM193.789 112.559C183.452 112.559 175.044 104.15 175.044 93.8126V18.8282C175.044 8.49067 183.452 0.0812988 193.789 0.0812988C204.127 0.0812988 212.536 8.49067 212.536 18.8282V93.8126C212.536 104.15 204.128 112.559 193.789 112.559ZM193.789 12.5797C192.132 12.5818 190.544 13.241 189.372 14.4127C188.201 15.5844 187.542 17.1729 187.541 18.8297V93.8141C187.541 97.2626 190.348 100.064 193.789 100.064C195.446 100.064 197.036 99.405 198.207 98.233C199.379 97.0609 200.037 95.4715 200.037 93.8141V18.8297C200.037 17.1724 199.379 15.5829 198.207 14.4109C197.036 13.2388 195.446 12.5802 193.789 12.5797ZM281.272 112.559C270.936 112.559 262.527 104.15 262.527 93.8126V18.8282C262.527 8.49067 270.936 0.0812988 281.272 0.0812988C291.609 0.0812988 300.019 8.49067 300.019 18.8282V93.8126C300.019 104.15 291.609 112.559 281.272 112.559ZM281.272 12.5797C279.615 12.5818 278.027 13.241 276.855 14.4127C275.684 15.5844 275.025 17.1729 275.023 18.8297V93.8141C275.023 97.2626 277.831 100.064 281.272 100.064C282.929 100.064 284.519 99.4056 285.691 98.2335C286.863 97.0614 287.522 95.4717 287.522 93.8141V18.8297C287.522 17.1721 286.863 15.5824 285.691 14.4103C284.519 13.2382 282.929 12.5797 281.272 12.5797ZM368.753 112.559C358.416 112.559 350.006 104.15 350.006 93.8126V18.8282C350.006 8.49067 358.416 0.0812988 368.753 0.0812988C379.091 0.0812988 387.5 8.49224 387.5 18.8297V93.8141C387.5 104.15 379.091 112.559 368.753 112.559ZM368.753 12.5797C365.311 12.5797 362.503 15.3797 362.503 18.8297V93.8141C362.503 97.2626 365.311 100.064 368.753 100.064C370.41 100.064 372 99.405 373.172 98.233C374.343 97.0609 375.002 95.4715 375.002 93.8141V18.8297C375.002 17.1724 374.343 15.5829 373.172 14.4109C372 13.2388 370.41 12.5802 368.753 12.5797ZM456.236 112.559C445.898 112.559 437.489 104.15 437.489 93.8126V18.8282C437.489 8.49067 445.898 0.0812988 456.236 0.0812988C466.572 0.0812988 474.981 8.49067 474.981 18.8282V93.8126C474.981 104.15 466.572 112.559 456.236 112.559ZM456.236 12.5797C452.794 12.5797 449.986 15.3797 449.986 18.8297V93.8141C449.986 97.2626 452.794 100.064 456.236 100.064C457.893 100.064 459.483 99.405 460.654 98.233C461.826 97.0609 462.484 95.4715 462.484 93.8141V18.8297C462.484 17.1724 461.826 15.5829 460.654 14.4109C459.483 13.2388 457.893 12.5802 456.236 12.5797ZM543.717 112.559C533.38 112.559 524.97 104.15 524.97 93.8126V18.8282C524.97 8.49067 533.38 0.0812988 543.717 0.0812988C554.053 0.0812988 562.462 8.49067 562.462 18.8282V93.8126C562.464 104.15 554.055 112.559 543.717 112.559ZM543.717 12.5797C540.275 12.5797 537.467 15.3797 537.467 18.8297V93.8141C537.467 97.2626 540.275 100.064 543.717 100.064C545.374 100.064 546.964 99.405 548.136 98.233C549.307 97.0609 549.966 95.4715 549.966 93.8141V18.8297C549.966 17.1724 549.307 15.5829 548.136 14.4109C546.964 13.2388 545.374 12.5802 543.717 12.5797ZM718.694 712.436C717.663 712.438 716.647 712.185 715.738 711.699C714.829 711.214 714.053 710.511 713.481 709.653L688.487 672.161C687.962 671.368 687.625 670.466 687.5 669.523C687.375 668.58 687.466 667.621 687.767 666.719L699.934 630.191V618.705C699.934 617.884 700.095 617.071 700.409 616.313C700.723 615.554 701.184 614.865 701.764 614.285C702.345 613.705 703.034 613.244 703.792 612.931C704.551 612.617 705.364 612.456 706.184 612.456C707.005 612.456 707.818 612.617 708.576 612.931C709.334 613.245 710.023 613.705 710.604 614.286C711.184 614.866 711.644 615.555 711.958 616.313C712.272 617.071 712.433 617.884 712.433 618.705V631.202C712.433 631.874 712.323 632.544 712.116 633.18L700.581 667.769L723.88 702.722C724.336 703.404 724.654 704.17 724.814 704.975C724.974 705.78 724.973 706.609 724.813 707.414C724.652 708.219 724.334 708.984 723.876 709.666C723.419 710.348 722.832 710.933 722.148 711.388C721.125 712.07 719.923 712.435 718.694 712.436Z" fill="#5C4636"/>
<path d="M718.681 712.436C717.55 712.436 716.44 712.129 715.47 711.547C714.5 710.966 713.706 710.132 713.172 709.135C712.638 708.138 712.385 707.015 712.44 705.885C712.494 704.755 712.854 703.662 713.481 702.72L736.781 667.767L725.259 633.178C725.04 632.542 724.929 631.873 724.93 631.2V618.703C724.929 617.882 725.091 617.07 725.405 616.311C725.718 615.553 726.179 614.864 726.759 614.284C727.339 613.704 728.028 613.243 728.786 612.93C729.545 612.616 730.357 612.454 731.178 612.455C731.999 612.454 732.811 612.616 733.57 612.93C734.328 613.243 735.017 613.704 735.597 614.284C736.178 614.864 736.638 615.553 736.952 616.311C737.266 617.07 737.427 617.882 737.427 618.703V630.189L749.608 666.717C749.909 667.62 750 668.58 749.873 669.523C749.746 670.467 749.405 671.369 748.875 672.159L723.88 709.652C723.311 710.509 722.538 711.213 721.631 711.699C720.724 712.185 719.71 712.438 718.681 712.436ZM743.675 524.973H693.686C692.865 524.974 692.053 524.813 691.294 524.499C690.536 524.185 689.847 523.725 689.267 523.144C688.686 522.564 688.226 521.875 687.912 521.117C687.598 520.358 687.437 519.546 687.438 518.725C687.438 515.27 690.233 512.475 693.686 512.475H743.675C747.13 512.475 749.925 515.27 749.925 518.725C749.925 519.546 749.764 520.359 749.45 521.117C749.136 521.875 748.676 522.564 748.095 523.145C747.515 523.725 746.826 524.185 746.067 524.499C745.309 524.813 744.496 524.974 743.675 524.973Z" fill="#5C4636"/>
<path d="M693.686 524.973C692.072 524.971 690.522 524.345 689.36 523.226C688.198 522.106 687.513 520.581 687.45 518.969L674.953 206.527C674.919 205.706 675.046 204.888 675.329 204.117C675.612 203.346 676.044 202.639 676.601 202.036C677.157 201.433 677.828 200.945 678.573 200.602C679.319 200.258 680.125 200.066 680.945 200.034C684.362 199.602 687.292 202.58 687.437 206.027L699.934 518.481C699.997 520.136 699.401 521.748 698.278 522.964C697.155 524.181 695.596 524.903 693.942 524.973H693.686ZM743.687 524.973H743.431C739.978 524.827 737.292 521.922 737.439 518.481L749.937 206.027C750.072 202.58 752.964 199.608 756.43 200.034C758.085 200.102 759.645 200.823 760.769 202.041C761.893 203.258 762.487 204.871 762.422 206.527L749.925 518.969C749.862 520.581 749.177 522.107 748.014 523.226C746.852 524.345 745.301 524.971 743.687 524.973Z" fill="#5C4636"/>
<path d="M756.173 212.527C755.353 212.527 754.54 212.366 753.782 212.052C753.023 211.738 752.334 211.278 751.754 210.698C751.173 210.117 750.713 209.428 750.399 208.67C750.086 207.912 749.924 207.099 749.925 206.278C749.925 177.256 739.416 162.538 718.681 162.538C697.958 162.538 687.437 177.256 687.437 206.278C687.437 209.733 684.642 212.527 681.189 212.527C677.736 212.527 674.941 209.733 674.941 206.278C674.941 170.538 690.892 150.041 718.681 150.041C746.483 150.041 762.422 170.538 762.422 206.278C762.422 207.099 762.261 207.912 761.947 208.67C761.633 209.428 761.173 210.117 760.593 210.697C760.012 211.278 759.323 211.738 758.565 212.052C757.807 212.366 756.994 212.527 756.173 212.527Z" fill="#5C4636"/>
<path d="M731.178 162.536H706.184C702.73 162.536 699.934 159.741 699.934 156.288C699.934 152.834 702.73 150.039 706.184 150.039H731.178C734.633 150.039 737.427 152.834 737.427 156.288C737.427 159.741 734.633 162.536 731.178 162.536ZM718.681 374.992C717.861 374.993 717.048 374.832 716.289 374.518C715.531 374.204 714.842 373.744 714.262 373.163C713.681 372.583 713.221 371.894 712.907 371.136C712.593 370.377 712.432 369.564 712.433 368.744V181.283C712.433 177.83 715.227 175.034 718.681 175.034C722.136 175.034 724.93 177.83 724.93 181.283V368.744C724.93 369.564 724.769 370.377 724.455 371.136C724.142 371.894 723.681 372.583 723.101 373.163C722.521 373.744 721.832 374.204 721.073 374.518C720.315 374.832 719.502 374.993 718.681 374.992ZM743.675 549.969H693.686C692.865 549.969 692.052 549.808 691.294 549.494C690.536 549.18 689.846 548.719 689.266 548.139C688.686 547.559 688.226 546.869 687.912 546.111C687.598 545.352 687.437 544.54 687.438 543.719C687.437 542.898 687.598 542.085 687.912 541.327C688.226 540.569 688.686 539.88 689.267 539.3C689.847 538.719 690.536 538.259 691.294 537.945C692.053 537.631 692.865 537.47 693.686 537.47H743.675C747.13 537.47 749.925 540.266 749.925 543.719C749.925 547.173 747.13 549.969 743.675 549.969Z" fill="#5C4636"/>
<path d="M743.675 549.969C742.854 549.969 742.041 549.808 741.283 549.494C740.525 549.18 739.836 548.719 739.255 548.139C738.675 547.559 738.215 546.869 737.901 546.111C737.587 545.352 737.426 544.54 737.427 543.719V518.725C737.427 515.27 740.222 512.475 743.675 512.475C747.13 512.475 749.925 515.27 749.925 518.725V543.719C749.925 547.173 747.13 549.969 743.675 549.969ZM693.686 549.969C692.865 549.969 692.052 549.808 691.294 549.494C690.536 549.18 689.846 548.719 689.266 548.139C688.686 547.559 688.226 546.869 687.912 546.111C687.598 545.352 687.437 544.54 687.438 543.719V518.725C687.438 515.27 690.233 512.475 693.686 512.475C694.507 512.475 695.32 512.636 696.078 512.95C696.836 513.264 697.525 513.724 698.106 514.305C698.686 514.885 699.146 515.574 699.46 516.333C699.774 517.091 699.935 517.904 699.934 518.725V543.719C699.934 547.173 697.141 549.969 693.686 549.969ZM743.675 624.953H693.686C692.865 624.954 692.053 624.792 691.294 624.478C690.536 624.164 689.847 623.704 689.267 623.124C688.686 622.544 688.226 621.855 687.912 621.096C687.598 620.338 687.437 619.525 687.438 618.705C687.437 617.884 687.598 617.071 687.912 616.313C688.226 615.555 688.686 614.866 689.267 614.285C689.847 613.705 690.536 613.245 691.294 612.931C692.053 612.617 692.865 612.456 693.686 612.456H743.675C747.13 612.456 749.925 615.252 749.925 618.705C749.925 619.526 749.764 620.338 749.45 621.097C749.136 621.855 748.676 622.544 748.095 623.124C747.515 623.705 746.826 624.165 746.067 624.479C745.309 624.793 744.496 624.954 743.675 624.953Z" fill="#5C4636"/>
<path d="M743.675 624.953C742.854 624.954 742.042 624.792 741.283 624.478C740.525 624.164 739.836 623.704 739.256 623.124C738.675 622.544 738.215 621.855 737.901 621.096C737.587 620.338 737.426 619.525 737.427 618.705V543.72C737.426 542.9 737.587 542.087 737.901 541.329C738.215 540.57 738.675 539.881 739.256 539.301C739.836 538.721 740.525 538.261 741.283 537.947C742.042 537.633 742.854 537.471 743.675 537.472C747.13 537.472 749.925 540.267 749.925 543.72V618.705C749.925 619.526 749.764 620.338 749.45 621.097C749.136 621.855 748.676 622.544 748.095 623.124C747.515 623.705 746.826 624.165 746.067 624.479C745.309 624.793 744.496 624.954 743.675 624.953ZM693.686 624.953C692.865 624.954 692.053 624.792 691.294 624.478C690.536 624.164 689.847 623.704 689.267 623.124C688.686 622.544 688.226 621.855 687.912 621.096C687.598 620.338 687.437 619.525 687.437 618.705V543.72C687.437 542.9 687.598 542.087 687.912 541.329C688.226 540.57 688.686 539.881 689.267 539.301C689.847 538.721 690.536 538.261 691.294 537.947C692.053 537.633 692.865 537.471 693.686 537.472C694.507 537.471 695.319 537.633 696.078 537.947C696.836 538.261 697.525 538.721 698.105 539.301C698.685 539.881 699.146 540.57 699.46 541.329C699.773 542.087 699.935 542.9 699.934 543.72V618.705C699.935 619.525 699.774 620.338 699.46 621.097C699.146 621.855 698.686 622.544 698.106 623.124C697.525 623.705 696.836 624.165 696.078 624.479C695.319 624.793 694.507 624.954 693.686 624.953ZM156.297 287.523C155.476 287.524 154.664 287.363 153.906 287.049C153.148 286.735 152.459 286.274 151.88 285.694L126.884 260.698C126.304 260.118 125.844 259.429 125.53 258.671C125.216 257.913 125.054 257.101 125.054 256.28C125.054 255.46 125.216 254.648 125.53 253.89C125.844 253.131 126.304 252.443 126.884 251.863C127.465 251.282 128.153 250.822 128.911 250.508C129.669 250.194 130.482 250.033 131.302 250.033C132.123 250.033 132.935 250.194 133.693 250.508C134.451 250.822 135.14 251.282 135.72 251.863L160.716 276.858C161.59 277.731 162.185 278.845 162.427 280.057C162.668 281.269 162.544 282.526 162.071 283.668C161.598 284.809 160.797 285.785 159.769 286.472C158.741 287.158 157.533 287.524 156.297 287.523Z" fill="#5C4636"/>
<path d="M156.297 287.523C155.061 287.524 153.853 287.158 152.825 286.471C151.798 285.785 150.997 284.809 150.524 283.667C150.051 282.525 149.927 281.269 150.169 280.057C150.41 278.845 151.006 277.731 151.88 276.858L201.869 226.867C203.04 225.696 204.63 225.037 206.287 225.037C207.944 225.037 209.533 225.696 210.705 226.867C211.876 228.039 212.535 229.628 212.535 231.285C212.535 232.942 211.876 234.531 210.705 235.703L160.716 285.694C160.136 286.275 159.447 286.735 158.689 287.049C157.93 287.363 157.118 287.524 156.297 287.523Z" fill="#5C4636"/>
<path d="M156.297 449.989C155.476 449.99 154.664 449.829 153.906 449.514C153.147 449.2 152.459 448.739 151.88 448.158L126.884 423.164C125.713 421.992 125.054 420.403 125.054 418.746C125.054 417.089 125.713 415.5 126.884 414.328C128.056 413.156 129.645 412.498 131.302 412.498C132.959 412.498 134.549 413.156 135.72 414.328L160.716 439.322C161.59 440.195 162.186 441.309 162.428 442.521C162.67 443.734 162.546 444.991 162.073 446.133C161.6 447.275 160.798 448.251 159.77 448.938C158.742 449.624 157.533 449.99 156.297 449.989Z" fill="#5C4636"/>
<path d="M156.297 449.989C155.061 449.99 153.852 449.623 152.824 448.937C151.796 448.25 150.995 447.274 150.522 446.132C150.049 444.99 149.926 443.733 150.167 442.521C150.409 441.309 151.005 440.195 151.88 439.322L201.869 389.345C203.04 388.174 204.63 387.515 206.287 387.515C207.944 387.515 209.533 388.174 210.705 389.345C211.876 390.517 212.535 392.106 212.535 393.763C212.535 395.42 211.876 397.01 210.705 398.181L160.716 448.158C160.136 448.739 159.448 449.201 158.689 449.515C157.931 449.829 157.118 449.99 156.297 449.989Z" fill="#5C4636"/>
<path d="M518.722 225.036H268.775C265.322 225.036 262.527 222.241 262.527 218.786C262.527 215.331 265.322 212.536 268.775 212.536H518.723C522.177 212.536 524.972 215.331 524.972 218.786C524.972 222.241 522.175 225.036 518.722 225.036Z" fill="#5C4636"/>
<path d="M518.722 262.528H268.775C265.322 262.528 262.527 259.733 262.527 256.28C262.527 252.827 265.322 250.03 268.775 250.03H518.723C522.177 250.03 524.972 252.825 524.972 256.28C524.972 259.734 522.175 262.528 518.722 262.528Z" fill="#5C4636"/>
<path d="M393.748 300.02H268.775C267.954 300.021 267.141 299.859 266.383 299.545C265.625 299.231 264.936 298.771 264.355 298.191C263.775 297.61 263.315 296.921 263.001 296.162C262.687 295.404 262.526 294.591 262.527 293.77C262.526 292.95 262.687 292.137 263.001 291.379C263.315 290.62 263.775 289.931 264.356 289.351C264.936 288.771 265.625 288.311 266.383 287.997C267.142 287.683 267.954 287.521 268.775 287.522H393.748C394.569 287.521 395.382 287.683 396.14 287.997C396.898 288.311 397.587 288.771 398.168 289.351C398.748 289.931 399.208 290.62 399.522 291.379C399.836 292.137 399.997 292.95 399.997 293.77C399.997 297.227 397.202 300.02 393.748 300.02Z" fill="#5C4636"/>
<path d="M518.722 387.502H268.775C265.322 387.502 262.527 384.706 262.527 381.253C262.527 377.8 265.322 375.003 268.775 375.003H518.723C522.177 375.003 524.972 377.798 524.972 381.253C524.972 384.708 522.175 387.502 518.722 387.502Z" fill="#5C4636"/>
<path d="M518.722 424.994H268.775C267.954 424.994 267.142 424.833 266.383 424.519C265.625 424.205 264.936 423.745 264.356 423.165C263.775 422.584 263.315 421.895 263.001 421.137C262.687 420.379 262.526 419.566 262.527 418.745C262.526 417.925 262.687 417.112 263.001 416.354C263.315 415.595 263.775 414.906 264.356 414.326C264.936 413.746 265.625 413.286 266.383 412.972C267.142 412.658 267.954 412.496 268.775 412.497H518.723C519.544 412.496 520.357 412.658 521.115 412.972C521.873 413.286 522.562 413.746 523.143 414.326C523.723 414.906 524.183 415.595 524.497 416.354C524.811 417.112 524.972 417.925 524.972 418.745C524.972 419.566 524.811 420.379 524.496 421.137C524.182 421.895 523.722 422.584 523.142 423.165C522.561 423.745 521.872 424.205 521.114 424.519C520.355 424.833 519.543 424.994 518.722 424.994Z" fill="#5C4636"/>
<path d="M393.748 462.488H268.775C267.954 462.488 267.141 462.327 266.383 462.013C265.625 461.699 264.936 461.238 264.355 460.658C263.775 460.077 263.315 459.388 263.001 458.63C262.687 457.871 262.526 457.058 262.527 456.238C262.526 455.417 262.687 454.604 263.001 453.846C263.315 453.088 263.775 452.399 264.356 451.818C264.936 451.238 265.625 450.778 266.383 450.464C267.142 450.15 267.954 449.989 268.775 449.989H393.748C394.569 449.989 395.382 450.15 396.14 450.464C396.898 450.778 397.587 451.238 398.168 451.818C398.748 452.399 399.208 453.088 399.522 453.846C399.836 454.604 399.997 455.417 399.997 456.238C399.997 459.692 397.202 462.488 393.748 462.488Z" fill="#5C4636"/>
<path d="M156.297 612.456C155.476 612.457 154.664 612.296 153.906 611.981C153.147 611.667 152.459 611.206 151.88 610.625L126.884 585.631C126.304 585.051 125.844 584.362 125.53 583.604C125.216 582.846 125.054 582.034 125.054 581.213C125.054 580.393 125.216 579.58 125.53 578.822C125.844 578.064 126.304 577.375 126.884 576.795C127.465 576.215 128.153 575.755 128.911 575.441C129.669 575.127 130.482 574.965 131.302 574.965C132.123 574.965 132.935 575.127 133.693 575.441C134.451 575.755 135.14 576.215 135.72 576.795L160.716 601.789C161.59 602.663 162.186 603.776 162.428 604.989C162.67 606.201 162.546 607.458 162.073 608.6C161.6 609.742 160.798 610.718 159.77 611.405C158.742 612.091 157.533 612.457 156.297 612.456Z" fill="#5C4636"/>
<path d="M156.297 612.456C155.061 612.457 153.852 612.091 152.824 611.404C151.796 610.718 150.995 609.741 150.522 608.599C150.049 607.457 149.926 606.201 150.167 604.988C150.409 603.776 151.005 602.663 151.88 601.789L201.869 551.8C203.04 550.628 204.63 549.97 206.287 549.97C207.944 549.97 209.533 550.628 210.705 551.8C211.876 552.972 212.535 554.561 212.535 556.218C212.535 557.875 211.876 559.464 210.705 560.636L160.716 610.625C160.136 611.206 159.447 611.667 158.689 611.982C157.931 612.296 157.118 612.457 156.297 612.456Z" fill="#5C4636"/>
<path d="M518.722 549.969H268.775C267.954 549.969 267.141 549.808 266.383 549.494C265.625 549.18 264.936 548.719 264.355 548.139C263.775 547.559 263.315 546.869 263.001 546.111C262.687 545.352 262.526 544.54 262.527 543.719C262.526 542.898 262.687 542.085 263.001 541.327C263.315 540.569 263.775 539.88 264.356 539.3C264.936 538.719 265.625 538.259 266.383 537.945C267.142 537.631 267.954 537.47 268.775 537.47H518.723C519.544 537.47 520.357 537.631 521.115 537.945C521.873 538.259 522.562 538.719 523.143 539.3C523.723 539.88 524.183 540.569 524.497 541.327C524.811 542.085 524.972 542.898 524.972 543.719C524.972 544.54 524.811 545.352 524.497 546.111C524.183 546.869 523.722 547.558 523.142 548.139C522.561 548.719 521.872 549.179 521.114 549.493C520.355 549.807 519.543 549.969 518.722 549.969Z" fill="#5C4636"/>
<path d="M518.722 587.461H268.775C267.954 587.461 267.142 587.3 266.383 586.986C265.625 586.672 264.936 586.212 264.356 585.632C263.775 585.051 263.315 584.362 263.001 583.604C262.687 582.846 262.526 582.033 262.527 581.213C262.526 580.392 262.687 579.579 263.001 578.821C263.315 578.063 263.775 577.374 264.356 576.793C264.936 576.213 265.625 575.753 266.383 575.439C267.142 575.125 267.954 574.964 268.775 574.964H518.723C519.544 574.964 520.357 575.125 521.115 575.439C521.873 575.753 522.562 576.213 523.143 576.793C523.723 577.374 524.183 578.063 524.497 578.821C524.811 579.579 524.972 580.392 524.972 581.213C524.972 582.033 524.811 582.846 524.496 583.604C524.182 584.363 523.722 585.052 523.142 585.632C522.561 586.212 521.872 586.672 521.114 586.986C520.355 587.3 519.543 587.461 518.722 587.461Z" fill="#5C4636"/>
<path d="M393.748 624.953H268.775C267.954 624.954 267.142 624.792 266.383 624.478C265.625 624.164 264.936 623.704 264.356 623.124C263.775 622.544 263.315 621.855 263.001 621.096C262.687 620.338 262.526 619.525 262.527 618.705C262.526 617.884 262.687 617.071 263.001 616.313C263.315 615.555 263.775 614.866 264.356 614.285C264.936 613.705 265.625 613.245 266.383 612.931C267.142 612.617 267.954 612.456 268.775 612.456H393.748C394.569 612.456 395.382 612.617 396.14 612.931C396.898 613.245 397.587 613.705 398.168 614.285C398.748 614.866 399.208 615.555 399.522 616.313C399.836 617.071 399.997 617.884 399.997 618.705C399.997 619.525 399.836 620.338 399.522 621.096C399.208 621.855 398.748 622.544 398.168 623.124C397.587 623.704 396.898 624.164 396.14 624.478C395.382 624.792 394.569 624.954 393.748 624.953Z" fill="#5C4636"/>
</svg>
