<svg width="800" height="764" viewBox="0 0 800 764" fill="none" xmlns="http://www.w3.org/2000/svg">
<path d="M768.673 619.453H31.325C14.0984 619.453 0.0812378 605.442 0.0812378 588.209V175.794C0.0812378 158.561 14.0984 144.55 31.325 144.55H768.673C785.906 144.55 799.917 158.561 799.917 175.794V588.209C799.917 605.442 785.906 619.453 768.673 619.453ZM31.325 157.047C20.9891 157.047 12.5797 165.455 12.5797 175.794V588.209C12.5797 598.545 20.9891 606.955 31.325 606.955H768.673C779.009 606.955 787.417 598.545 787.417 588.209V175.794C787.417 165.456 779.009 157.047 768.673 157.047H31.325ZM76.9344 684.686C70.9547 684.686 65.0844 682.941 59.9266 679.584C52.9094 675.006 48.1078 668.002 46.3984 659.848L40.8219 633.231C40.653 632.428 40.644 631.6 40.7956 630.794C40.9471 629.987 41.2562 629.219 41.705 628.532C42.1539 627.845 42.7338 627.253 43.4115 626.791C44.0892 626.328 44.8515 626.004 45.6547 625.836C49 625.055 52.35 627.3 53.05 630.669L58.6281 657.286C59.6531 662.169 62.5391 666.367 66.75 669.113C70.9734 671.87 75.9641 672.797 80.8156 671.772L302.875 625.25C306.22 624.494 309.57 626.703 310.27 630.083C310.439 630.886 310.448 631.714 310.297 632.521C310.146 633.327 309.837 634.096 309.388 634.783C308.939 635.47 308.359 636.061 307.681 636.524C307.003 636.986 306.241 637.311 305.437 637.478L83.3906 684.002C81.268 684.452 79.1043 684.682 76.9344 684.686ZM498.709 138.302C497.277 138.3 495.888 137.805 494.777 136.901C493.665 135.996 492.899 134.737 492.606 133.334C492.438 132.531 492.429 131.703 492.581 130.897C492.732 130.09 493.042 129.321 493.49 128.635C493.939 127.948 494.52 127.356 495.197 126.894C495.875 126.431 496.637 126.107 497.441 125.939L716.645 79.9891C733.538 76.4375 750.075 87.3 753.627 104.155L759.202 130.772C759.37 131.575 759.379 132.403 759.228 133.209C759.077 134.016 758.768 134.784 758.319 135.471C757.87 136.158 757.291 136.75 756.613 137.212C755.935 137.675 755.173 137.999 754.37 138.167C751.05 138.923 747.669 136.714 746.973 133.334L741.398 106.716C739.275 96.5985 729.35 90.1422 719.209 92.2172L500.003 138.167C499.578 138.26 499.144 138.305 498.709 138.302Z" fill="#5C4636"/>
<path d="M768.673 619.453H31.325C14.0984 619.453 0.0812378 605.442 0.0812378 588.209V175.794C0.0812378 158.561 14.0984 144.55 31.325 144.55H768.673C785.906 144.55 799.917 158.561 799.917 175.794V588.209C799.917 605.442 785.906 619.453 768.673 619.453ZM31.325 157.047C20.9891 157.047 12.5797 165.455 12.5797 175.794V588.209C12.5797 598.545 20.9891 606.955 31.325 606.955H768.673C779.009 606.955 787.417 598.545 787.417 588.209V175.794C787.417 165.456 779.009 157.047 768.673 157.047H31.325ZM170.366 763.038C167.639 763.038 164.886 762.683 162.17 761.952C154.084 759.791 147.348 754.628 143.198 747.428L114.395 697.536C113.985 696.826 113.718 696.041 113.611 695.228C113.504 694.415 113.558 693.588 113.771 692.796C113.983 692.003 114.35 691.261 114.85 690.61C115.35 689.96 115.973 689.414 116.684 689.005C119.655 687.259 123.494 688.297 125.22 691.288L154.023 741.18C156.506 745.488 160.553 748.575 165.411 749.881C170.25 751.175 175.309 750.541 179.636 748.038L390.091 626.542C393.062 624.784 396.889 625.834 398.627 628.823C399.037 629.534 399.304 630.318 399.411 631.131C399.518 631.944 399.464 632.771 399.252 633.563C399.039 634.356 398.673 635.098 398.173 635.749C397.673 636.4 397.05 636.945 396.339 637.355L185.884 758.864C181.17 761.6 175.816 763.04 170.366 763.038ZM406.791 138.302C405.693 138.302 404.614 138.014 403.663 137.465C402.712 136.916 401.923 136.127 401.373 135.177C400.963 134.466 400.696 133.682 400.589 132.869C400.481 132.055 400.536 131.229 400.748 130.436C400.961 129.644 401.328 128.901 401.828 128.25C402.328 127.6 402.951 127.055 403.662 126.645L614.114 5.13751C621.305 0.976569 629.688 -0.109367 637.817 2.03751C645.895 4.20938 652.633 9.36094 656.781 16.5609L685.547 66.4172C685.959 67.1266 686.226 67.9103 686.335 68.7234C686.443 69.5364 686.39 70.3629 686.178 71.1553C685.966 71.9477 685.6 72.6905 685.1 73.3412C684.601 73.9918 683.978 74.5375 683.267 74.9469C682.557 75.358 681.773 75.6251 680.96 75.733C680.147 75.8408 679.32 75.7873 678.528 75.5754C677.735 75.3635 676.992 74.9975 676.341 74.4982C675.69 73.9989 675.144 73.3762 674.734 72.6656L645.956 22.8109C643.466 18.5016 639.425 15.4156 634.583 14.1094C629.688 12.8281 624.65 13.4625 620.364 15.9531L409.909 137.459C408.963 138.012 407.887 138.303 406.791 138.302Z" fill="#5C4636"/>
<path d="M768.673 232.031H31.325C30.5043 232.032 29.6916 231.87 28.9333 231.556C28.175 231.243 27.4861 230.782 26.9057 230.202C26.3254 229.622 25.8652 228.933 25.5513 228.175C25.2375 227.416 25.0761 226.604 25.0765 225.783C25.0761 224.962 25.2375 224.149 25.5513 223.391C25.8652 222.633 26.3254 221.944 26.9057 221.364C27.4861 220.783 28.175 220.323 28.9333 220.009C29.6916 219.695 30.5043 219.534 31.325 219.534H768.673C769.494 219.534 770.306 219.696 771.065 220.01C771.823 220.324 772.511 220.784 773.092 221.364C773.672 221.944 774.132 222.633 774.446 223.392C774.759 224.15 774.921 224.962 774.92 225.783C774.921 226.603 774.76 227.416 774.446 228.174C774.132 228.933 773.672 229.622 773.092 230.202C772.512 230.782 771.823 231.243 771.065 231.556C770.307 231.87 769.494 232.032 768.673 232.031ZM768.673 319.514H31.325C30.5042 319.515 29.6913 319.353 28.933 319.039C28.1746 318.725 27.4855 318.265 26.9052 317.684C26.3249 317.104 25.8647 316.415 25.5509 315.656C25.2371 314.898 25.0759 314.085 25.0765 313.264C25.0761 312.443 25.2375 311.631 25.5513 310.872C25.8652 310.114 26.3254 309.425 26.9057 308.845C27.4861 308.265 28.175 307.804 28.9333 307.49C29.6916 307.177 30.5043 307.015 31.325 307.016H768.673C769.494 307.015 770.306 307.177 771.065 307.491C771.823 307.805 772.511 308.265 773.092 308.845C773.672 309.426 774.132 310.115 774.446 310.873C774.759 311.631 774.921 312.444 774.92 313.264C774.92 316.719 772.125 319.514 768.673 319.514ZM56.3203 291.919C55.3175 291.921 54.329 291.681 53.4386 291.219C52.5482 290.758 51.782 290.089 51.2048 289.269C50.6277 288.449 50.2567 287.502 50.1231 286.508C49.9895 285.514 50.0974 284.503 50.4375 283.559L62.9344 248.667C64.1 245.409 67.6812 243.761 70.9219 244.895C71.6953 245.171 72.4067 245.597 73.0153 246.149C73.6239 246.7 74.1178 247.366 74.4686 248.109C74.8194 248.851 75.0203 249.656 75.0597 250.476C75.0992 251.296 74.9764 252.116 74.6984 252.889L62.2015 287.783C61.7668 288.994 60.9685 290.042 59.9158 290.782C58.863 291.522 57.6073 291.919 56.3203 291.919ZM93.814 291.919C92.8112 291.921 91.8228 291.681 90.9324 291.219C90.0419 290.758 89.2757 290.089 88.6986 289.269C88.1215 288.449 87.7504 287.502 87.6168 286.508C87.4833 285.514 87.5911 284.503 87.9312 283.559L100.43 248.667C101.595 245.409 105.183 243.761 108.417 244.895C109.191 245.172 109.902 245.598 110.51 246.149C111.119 246.7 111.613 247.366 111.963 248.109C112.314 248.851 112.515 249.656 112.555 250.476C112.594 251.296 112.471 252.116 112.194 252.889L99.6969 287.783C99.2611 288.994 98.4623 290.041 97.4095 290.781C96.3566 291.521 95.101 291.919 93.814 291.919ZM131.294 291.919C130.291 291.921 129.302 291.681 128.412 291.219C127.522 290.758 126.755 290.089 126.178 289.269C125.601 288.449 125.23 287.502 125.097 286.508C124.963 285.514 125.071 284.503 125.411 283.559L137.909 248.667C139.069 245.409 142.656 243.761 145.897 244.895C146.67 245.172 147.381 245.598 147.99 246.149C148.598 246.7 149.092 247.366 149.443 248.109C149.794 248.851 149.995 249.656 150.034 250.476C150.074 251.296 149.951 252.116 149.673 252.889L137.177 287.783C136.741 288.994 135.942 290.041 134.889 290.781C133.836 291.521 132.581 291.919 131.294 291.919ZM168.773 291.919C167.771 291.92 166.782 291.68 165.892 291.219C165.002 290.757 164.236 290.088 163.659 289.268C163.082 288.448 162.711 287.502 162.577 286.508C162.443 285.514 162.551 284.503 162.891 283.559L175.389 248.667C176.555 245.409 180.13 243.761 183.377 244.895C184.15 245.171 184.862 245.597 185.47 246.148C186.079 246.7 186.573 247.366 186.924 248.108C187.275 248.851 187.476 249.656 187.515 250.476C187.554 251.296 187.431 252.116 187.153 252.889L174.656 287.783C174.221 288.994 173.422 290.041 172.369 290.782C171.316 291.522 170.061 291.919 168.773 291.919ZM206.266 291.919C205.263 291.92 204.275 291.68 203.384 291.219C202.494 290.757 201.728 290.088 201.151 289.268C200.574 288.448 200.203 287.502 200.069 286.508C199.935 285.514 200.043 284.503 200.383 283.559L212.881 248.667C214.041 245.409 217.63 243.761 220.869 244.895C221.642 245.171 222.354 245.597 222.963 246.148C223.571 246.7 224.065 247.366 224.416 248.108C224.767 248.851 224.968 249.656 225.007 250.476C225.046 251.296 224.923 252.116 224.645 252.889L212.148 287.783C211.713 288.994 210.914 290.041 209.861 290.782C208.809 291.522 207.553 291.919 206.266 291.919ZM243.756 291.919C242.754 291.92 241.765 291.68 240.875 291.219C239.985 290.757 239.219 290.088 238.642 289.268C238.065 288.448 237.694 287.502 237.56 286.508C237.426 285.514 237.534 284.503 237.873 283.559L250.372 248.667C251.537 245.409 255.102 243.761 258.359 244.895C259.133 245.171 259.844 245.597 260.453 246.148C261.062 246.7 261.556 247.366 261.907 248.108C262.258 248.851 262.458 249.656 262.498 250.476C262.537 251.296 262.414 252.116 262.136 252.889L249.637 287.783C249.203 288.994 248.405 290.042 247.352 290.782C246.299 291.523 245.043 291.92 243.756 291.919ZM281.237 291.919C280.235 291.92 279.247 291.68 278.356 291.219C277.466 290.757 276.7 290.088 276.123 289.268C275.546 288.448 275.175 287.501 275.042 286.508C274.908 285.514 275.016 284.503 275.356 283.559L287.855 248.667C289.027 245.409 292.608 243.761 295.842 244.895C296.616 245.171 297.327 245.597 297.936 246.148C298.545 246.7 299.039 247.366 299.39 248.108C299.741 248.851 299.942 249.655 299.981 250.476C300.021 251.296 299.898 252.116 299.62 252.889L287.122 287.783C286.686 288.994 285.887 290.041 284.834 290.781C283.781 291.521 282.525 291.919 281.237 291.919ZM318.717 291.919C317.715 291.92 316.726 291.68 315.836 291.219C314.946 290.757 314.18 290.088 313.603 289.268C313.026 288.448 312.655 287.501 312.521 286.508C312.388 285.514 312.496 284.503 312.836 283.559L325.333 248.667C326.498 245.409 330.081 243.761 333.32 244.895C334.094 245.171 334.805 245.597 335.414 246.148C336.023 246.7 336.517 247.366 336.868 248.108C337.219 248.851 337.42 249.655 337.46 250.476C337.499 251.296 337.376 252.116 337.098 252.889L324.6 287.783C324.165 288.994 323.366 290.041 322.313 290.782C321.26 291.522 320.004 291.919 318.717 291.919ZM356.209 291.919C355.207 291.92 354.218 291.68 353.328 291.219C352.438 290.757 351.672 290.088 351.095 289.268C350.518 288.448 350.147 287.501 350.014 286.508C349.88 285.514 349.988 284.503 350.328 283.559L362.825 248.667C363.984 245.409 367.578 243.761 370.812 244.895C371.586 245.171 372.298 245.597 372.906 246.148C373.515 246.7 374.009 247.366 374.36 248.108C374.711 248.851 374.911 249.656 374.951 250.476C374.99 251.296 374.867 252.116 374.589 252.889L362.091 287.783C361.656 288.994 360.858 290.042 359.805 290.782C358.752 291.522 357.496 291.919 356.209 291.919ZM393.702 291.919C392.699 291.92 391.711 291.68 390.82 291.219C389.93 290.757 389.164 290.088 388.587 289.268C388.01 288.448 387.639 287.502 387.505 286.508C387.371 285.514 387.479 284.503 387.819 283.559L400.316 248.667C401.481 245.409 405.05 243.761 408.303 244.895C409.076 245.172 409.787 245.598 410.396 246.15C411.004 246.701 411.498 247.367 411.848 248.109C412.199 248.852 412.4 249.656 412.44 250.476C412.48 251.296 412.358 252.116 412.081 252.889L399.583 287.783C399.148 288.994 398.35 290.042 397.297 290.782C396.244 291.522 394.989 291.919 393.702 291.919ZM431.183 291.919C430.18 291.919 429.193 291.678 428.303 291.216C427.413 290.755 426.648 290.086 426.071 289.266C425.494 288.447 425.123 287.5 424.988 286.507C424.854 285.514 424.96 284.503 425.298 283.559L437.795 248.667C438.955 245.433 442.544 243.773 445.791 244.895C447.35 245.456 448.623 246.613 449.33 248.112C450.036 249.611 450.119 251.329 449.559 252.889L437.062 287.783C436.628 288.994 435.83 290.041 434.777 290.781C433.725 291.522 432.469 291.919 431.183 291.919ZM468.661 291.919C467.966 291.919 467.245 291.797 466.548 291.553C463.302 290.394 461.62 286.819 462.777 283.559L475.277 248.667C476.448 245.433 480.022 243.773 483.269 244.895C484.041 245.173 484.752 245.599 485.359 246.151C485.967 246.703 486.46 247.369 486.81 248.111C487.16 248.853 487.361 249.657 487.401 250.477C487.44 251.297 487.318 252.117 487.041 252.889L474.544 287.783C474.109 288.994 473.31 290.042 472.257 290.782C471.204 291.522 469.948 291.919 468.661 291.919ZM506.155 291.919C505.152 291.919 504.165 291.678 503.275 291.216C502.385 290.755 501.62 290.086 501.043 289.266C500.466 288.447 500.095 287.5 499.96 286.507C499.826 285.514 499.932 284.503 500.27 283.559L512.767 248.667C513.927 245.433 517.516 243.773 520.762 244.895C522.322 245.456 523.595 246.613 524.301 248.112C525.008 249.611 525.091 251.329 524.531 252.889L512.034 287.783C511.6 288.994 510.801 290.041 509.749 290.781C508.697 291.522 507.441 291.919 506.155 291.919ZM543.647 291.919C542.645 291.919 541.657 291.678 540.767 291.216C539.878 290.755 539.112 290.086 538.535 289.266C537.958 288.447 537.587 287.5 537.452 286.507C537.318 285.514 537.424 284.503 537.762 283.559L550.262 248.667C551.431 245.433 554.995 243.773 558.255 244.895C559.027 245.173 559.738 245.599 560.345 246.151C560.953 246.703 561.446 247.369 561.796 248.111C562.146 248.853 562.347 249.657 562.387 250.477C562.426 251.297 562.304 252.117 562.026 252.889L549.53 287.783C549.094 288.994 548.296 290.041 547.243 290.782C546.19 291.522 544.934 291.919 543.647 291.919ZM581.137 291.919C580.135 291.918 579.148 291.677 578.259 291.215C577.37 290.754 576.604 290.085 576.028 289.265C575.451 288.446 575.08 287.499 574.946 286.506C574.812 285.513 574.918 284.503 575.256 283.559L587.753 248.667C588.925 245.433 592.502 243.773 595.745 244.895C596.518 245.173 597.228 245.599 597.836 246.151C598.444 246.703 598.937 247.369 599.287 248.111C599.637 248.853 599.838 249.657 599.877 250.477C599.917 251.297 599.794 252.117 599.517 252.889L587.02 287.783C586.585 288.994 585.786 290.041 584.733 290.782C583.68 291.522 582.425 291.919 581.137 291.919ZM618.631 291.919C617.629 291.919 616.641 291.678 615.752 291.216C614.862 290.755 614.096 290.086 613.519 289.266C612.942 288.447 612.571 287.5 612.437 286.507C612.302 285.514 612.409 284.503 612.747 283.559L625.244 248.667C626.403 245.433 630.005 243.773 633.239 244.895C634.012 245.173 634.722 245.599 635.33 246.151C635.937 246.703 636.43 247.369 636.781 248.111C637.131 248.853 637.331 249.657 637.371 250.477C637.41 251.297 637.288 252.117 637.011 252.889L624.514 287.783C624.079 288.994 623.28 290.041 622.227 290.782C621.174 291.522 619.918 291.919 618.631 291.919ZM656.122 291.919C655.12 291.918 654.133 291.677 653.243 291.215C652.354 290.754 651.589 290.085 651.012 289.265C650.436 288.446 650.065 287.499 649.93 286.506C649.796 285.513 649.902 284.503 650.241 283.559L662.737 248.667C663.909 245.433 667.473 243.773 670.73 244.895C671.502 245.173 672.213 245.599 672.82 246.151C673.428 246.703 673.921 247.369 674.271 248.111C674.621 248.853 674.822 249.657 674.862 250.477C674.901 251.297 674.779 252.117 674.502 252.889L662.005 287.783C661.57 288.994 660.771 290.042 659.718 290.782C658.665 291.522 657.409 291.919 656.122 291.919ZM693.616 291.919C692.613 291.919 691.626 291.678 690.736 291.216C689.846 290.755 689.081 290.086 688.504 289.266C687.927 288.447 687.555 287.5 687.421 286.507C687.287 285.514 687.393 284.503 687.731 283.559L700.228 248.667C701.387 245.433 704.977 243.773 708.223 244.895C711.47 246.055 713.152 249.631 711.995 252.889L699.495 287.783C699.061 288.994 698.263 290.042 697.21 290.782C696.158 291.522 694.902 291.919 693.616 291.919ZM731.106 291.919C730.411 291.919 729.691 291.797 728.994 291.553C727.434 290.992 726.161 289.835 725.455 288.336C724.748 286.837 724.665 285.119 725.225 283.559L737.722 248.667C738.894 245.433 742.458 243.773 745.714 244.895C746.487 245.173 747.197 245.599 747.805 246.151C748.412 246.703 748.905 247.369 749.256 248.111C749.606 248.853 749.806 249.657 749.846 250.477C749.885 251.297 749.763 252.117 749.486 252.889L736.989 287.783C736.554 288.994 735.755 290.042 734.702 290.782C733.649 291.522 732.393 291.919 731.106 291.919ZM93.7703 506.927C92.7979 506.928 91.8386 506.702 90.9687 506.268C90.0988 505.833 89.3423 505.202 88.7593 504.423C79.8015 492.452 75.0656 478.209 75.0656 463.234C75.0656 425.339 105.9 394.498 143.802 394.498C144.622 394.498 145.435 394.659 146.193 394.973C146.951 395.287 147.64 395.747 148.221 396.328C148.801 396.908 149.261 397.597 149.575 398.355C149.889 399.114 150.05 399.926 150.05 400.747C150.05 401.568 149.889 402.38 149.575 403.139C149.261 403.897 148.801 404.586 148.221 405.166C147.64 405.746 146.951 406.207 146.193 406.521C145.435 406.834 144.622 406.996 143.802 406.995C112.789 406.995 87.5625 432.223 87.5625 463.234C87.5625 475.488 91.4375 487.144 98.7656 496.93C99.7582 498.257 100.183 499.925 99.9474 501.566C99.7116 503.207 98.8341 504.687 97.5078 505.681C96.4304 506.491 95.1183 506.929 93.7703 506.927ZM143.803 531.97C142.982 531.971 142.169 531.809 141.411 531.495C140.653 531.181 139.964 530.721 139.383 530.141C138.803 529.56 138.343 528.871 138.029 528.112C137.715 527.354 137.554 526.541 137.555 525.72C137.554 524.9 137.716 524.087 138.029 523.329C138.343 522.57 138.804 521.881 139.384 521.301C139.964 520.721 140.653 520.261 141.411 519.947C142.17 519.633 142.982 519.471 143.803 519.472C174.816 519.472 200.041 494.245 200.041 463.234C200.041 455.398 198.467 447.82 195.355 440.717C195.025 439.966 194.847 439.157 194.83 438.337C194.813 437.517 194.958 436.701 195.257 435.937C195.555 435.173 196.002 434.475 196.57 433.884C197.139 433.293 197.819 432.819 198.57 432.491C201.756 431.123 205.423 432.539 206.803 435.713C210.611 444.403 212.539 453.666 212.539 463.234C212.537 501.13 181.705 531.97 143.803 531.97Z" fill="#5C4636"/>
<path d="M131.306 456.986C130.07 456.987 128.861 456.621 127.833 455.934C126.805 455.248 126.003 454.272 125.53 453.13C125.057 451.988 124.934 450.731 125.175 449.518C125.417 448.306 126.013 447.192 126.887 446.319L201.872 371.333C203.044 370.161 204.633 369.503 206.29 369.503C207.947 369.503 209.536 370.161 210.708 371.333C211.879 372.505 212.538 374.094 212.538 375.751C212.538 377.408 211.879 378.997 210.708 380.169L135.723 455.155C135.144 455.736 134.456 456.197 133.698 456.512C132.94 456.826 132.127 456.987 131.306 456.986Z" fill="#5C4636"/>
<path d="M156.3 481.98C155.479 481.981 154.667 481.819 153.909 481.505C153.151 481.191 152.462 480.73 151.883 480.148L126.887 455.155C126.307 454.575 125.847 453.886 125.533 453.128C125.219 452.37 125.057 451.557 125.057 450.737C125.057 449.916 125.219 449.104 125.533 448.346C125.847 447.588 126.307 446.899 126.887 446.319C127.468 445.739 128.156 445.278 128.914 444.964C129.672 444.65 130.485 444.489 131.305 444.489C132.126 444.489 132.938 444.65 133.696 444.964C134.454 445.278 135.143 445.739 135.723 446.319L160.719 471.314C161.594 472.187 162.19 473.301 162.432 474.513C162.673 475.726 162.55 476.983 162.077 478.125C161.603 479.267 160.802 480.243 159.774 480.929C158.745 481.615 157.536 481.981 156.3 481.98Z" fill="#5C4636"/>
<path d="M81.3156 556.966C80.0793 556.967 78.8704 556.601 77.8421 555.915C76.8137 555.229 76.0122 554.253 75.539 553.111C75.0658 551.969 74.9422 550.712 75.184 549.499C75.4257 548.287 76.0218 547.173 76.8968 546.3L151.881 471.316C153.053 470.144 154.642 469.486 156.299 469.485C157.956 469.485 159.545 470.143 160.716 471.315C161.888 472.486 162.546 474.075 162.547 475.732C162.547 477.389 161.889 478.978 160.717 480.15L85.7328 555.134C85.1535 555.716 84.465 556.177 83.7069 556.491C82.9489 556.805 82.1362 556.966 81.3156 556.966ZM518.725 431.991H281.273C277.82 431.991 275.025 429.197 275.025 425.742C275.025 422.288 277.82 419.494 281.273 419.494H518.725C522.177 419.494 524.972 422.288 524.972 425.742C524.972 429.197 522.177 431.991 518.725 431.991ZM518.725 469.483H281.273C280.453 469.483 279.64 469.322 278.882 469.008C278.123 468.694 277.434 468.234 276.854 467.654C276.274 467.073 275.814 466.384 275.5 465.626C275.186 464.868 275.025 464.055 275.025 463.234C275.025 462.414 275.186 461.601 275.5 460.843C275.814 460.084 276.274 459.395 276.854 458.815C277.434 458.235 278.123 457.775 278.882 457.461C279.64 457.147 280.453 456.986 281.273 456.986H518.725C519.546 456.986 520.358 457.147 521.116 457.461C521.875 457.775 522.563 458.235 523.144 458.815C523.724 459.396 524.184 460.085 524.498 460.843C524.811 461.601 524.972 462.414 524.972 463.234C524.972 464.055 524.811 464.867 524.497 465.626C524.183 466.384 523.723 467.073 523.143 467.653C522.563 468.233 521.874 468.694 521.116 469.008C520.358 469.322 519.546 469.483 518.725 469.483Z" fill="#5C4636"/>
<path d="M393.75 506.975H281.273C280.453 506.975 279.64 506.814 278.882 506.5C278.124 506.186 277.435 505.726 276.854 505.146C276.274 504.565 275.814 503.877 275.5 503.118C275.186 502.36 275.025 501.547 275.025 500.727C275.025 497.272 277.82 494.477 281.273 494.477H393.75C394.571 494.476 395.384 494.638 396.142 494.952C396.9 495.266 397.589 495.726 398.17 496.306C398.75 496.887 399.21 497.576 399.524 498.334C399.838 499.093 399.999 499.906 399.998 500.727C399.999 501.547 399.838 502.36 399.524 503.118C399.21 503.877 398.75 504.566 398.17 505.146C397.589 505.727 396.9 506.187 396.142 506.501C395.384 506.814 394.571 506.976 393.75 506.975Z" fill="#5C4636"/>
<path d="M618.705 456.986C601.472 456.986 587.461 442.975 587.461 425.742C587.461 408.509 601.472 394.498 618.705 394.498C635.938 394.498 649.948 408.509 649.948 425.742C649.948 442.975 635.938 456.986 618.705 456.986ZM618.705 406.995C608.369 406.995 599.958 415.405 599.958 425.742C599.958 436.078 608.369 444.489 618.705 444.489C629.041 444.489 637.452 436.078 637.452 425.742C637.452 415.405 629.041 406.995 618.705 406.995Z" fill="#5C4636"/>
<path d="M693.689 531.97C676.456 531.97 662.445 517.959 662.445 500.727C662.445 483.494 676.456 469.483 693.689 469.483C710.922 469.483 724.933 483.494 724.933 500.727C724.933 517.959 710.922 531.97 693.689 531.97ZM693.689 481.98C683.353 481.98 674.942 490.389 674.942 500.727C674.942 511.062 683.353 519.472 693.689 519.472C704.025 519.472 712.436 511.062 712.436 500.727C712.436 490.389 704.025 481.98 693.689 481.98Z" fill="#5C4636"/>
<path d="M593.661 531.922C592.425 531.923 591.216 531.557 590.188 530.87C589.16 530.184 588.358 529.208 587.885 528.066C587.412 526.924 587.288 525.667 587.53 524.454C587.771 523.242 588.367 522.128 589.242 521.255L714.153 396.33C715.333 395.2 716.909 394.577 718.543 394.595C720.177 394.612 721.739 395.269 722.894 396.425C724.05 397.58 724.707 399.142 724.725 400.775C724.743 402.409 724.12 403.985 722.991 405.166L598.077 530.091C597.498 530.672 596.81 531.133 596.052 531.447C595.294 531.762 594.481 531.923 593.661 531.922Z" fill="#5C4636"/>
</svg>
